<?xml version="1.0" encoding="UTF-8"?>
<svg version="1.1" xmlns="http://www.w3.org/2000/svg" width="384" height="384">
<path d="M0 0 C3.40802096 1.37943705 4.64464197 2.57303374 6.140625 5.9140625 C6.48867187 6.67460938 6.83671875 7.43515625 7.1953125 8.21875 C7.54335937 9.0128125 7.89140625 9.806875 8.25 10.625 C8.61351562 11.42679688 8.97703125 12.22859375 9.3515625 13.0546875 C10.24576481 15.03134523 11.12440319 17.01503054 12 19 C12.61931396 18.70794678 13.23862793 18.41589355 13.87670898 18.11499023 C16.3121429 17.01193153 18.33725609 16.3080512 21 16 C23.99824823 17.40801712 26.06105396 19.32817852 28 22 C28.6875 24.21484375 28.6875 24.21484375 29 26 C27.68 26.66 26.36 27.32 25 28 C23.02 26.35 21.04 24.7 19 23 C15.45236408 24.45562793 15.07542822 24.84076265 13.3125 28.5625 C11.92514337 33.23530009 11.51588136 37.90908984 11.1875 42.75 C11.13440674 43.4829126 11.08131348 44.2158252 11.02661133 44.97094727 C10.81422355 49.15140695 10.99216965 52.29531639 13 56 C14.62339805 57.70884005 16.29319053 59.37446717 18 61 C22.14145043 65.83169217 23.11299846 68.81346365 23.140625 75.13671875 C23.16962891 76.96299805 23.16962891 76.96299805 23.19921875 78.82617188 C23.23281401 81.38070351 23.25128195 83.93548319 23.25390625 86.49023438 C23.38799343 93.19106483 23.66613891 98.04872442 27.83496094 103.46020508 C29 105 29 105 30 108 C30.66 108 31.32 108 32 108 C32.37125 107.2265625 32.37125 107.2265625 32.75 106.4375 C34 104 34 104 36.04296875 101.2265625 C39.24808826 95.63689814 38.55927246 89.19569687 38.5625 82.9375 C38.57146492 80.44653236 38.59315419 77.95557094 38.62890625 75.46484375 C38.62963135 74.367771 38.63035645 73.27069824 38.63110352 72.14038086 C39.46744738 65.02066471 43.61683064 61.02068693 48.75 56.4375 C51.7719104 52.96230304 51.23419159 48.37157627 51 44 C50.11935073 41.64630193 50.11935073 41.64630193 49 40 C45.62599422 39.58274322 45.62599422 39.58274322 42 40 C39.99135641 42.3726974 39.99135641 42.3726974 39 45 C37.68 44.67 36.36 44.34 35 44 C35.32358927 40.44051799 35.6100994 38.46536524 37.9375 35.6875 C41.9781343 32.38152648 44.91915496 32.91805089 50 33 C49.96519531 32.23816406 49.93039063 31.47632812 49.89453125 30.69140625 C49.58295852 18.80713227 53.11786012 11.18428749 59 1 C60.32 1 61.64 1 63 1 C63.7109375 2.59375 63.7109375 2.59375 64 5 C62.6015625 8.03125 62.6015625 8.03125 60.625 11.5 C53.99225641 24.03681044 56.27892767 36.40210624 58 50 C58.45375 49.505 58.9075 49.01 59.375 48.5 C61 47 61 47 63 47 C63.33 46.01 63.66 45.02 64 44 C64.78375 43.29875 65.5675 42.5975 66.375 41.875 C71.77742742 35.95805568 72.63621516 27.6853287 74 20 C75.65 20.33 77.3 20.66 79 21 C79.54859163 30.50892157 78.22819355 39.03013704 71.8125 46.375 C68.37639384 49.86697781 64.76219967 52.87521452 60.78125 55.71875 C55.13450687 59.78044242 51.98371533 64.39476408 50 71 C49.46285577 75.08494874 49.40167801 78.56821781 51.00390625 82.40234375 C53.48443285 88.87116802 52.75386057 96.75410446 50 103.04296875 C48.10272168 106.75600171 46.10715474 110.40201247 44 114 C44.64324219 113.61328125 45.28648437 113.2265625 45.94921875 112.828125 C51.09781168 109.86089027 55.95935014 107.56359862 61.6875 105.9375 C68.47813935 103.96732639 74.19238802 102.17890383 77.8125 95.8125 C78.45744089 93.74190031 79.09066977 91.66682884 79.66015625 89.57421875 C81.63615716 82.45845591 83.65521591 76.89327402 90.3125 73.125 C93.1537049 71.33349171 93.1537049 71.33349171 93.484375 68.8984375 C93.59933804 65.36907217 93.36746035 62.75426071 91.8125 59.5625 C89.67741836 57.72191238 87.66929007 56.8657157 85 56 C85 54.35 85 52.7 85 51 C88.60914402 50.66426567 90.50153901 50.69142891 93.625 52.625 C97.60693764 56.60693764 100.33181769 60.32045039 101 66 C101.78375 65.505 102.5675 65.01 103.375 64.5 C106 63 106 63 108 63 C108.4021875 61.9171875 108.4021875 61.9171875 108.8125 60.8125 C110 58 110 58 111.55078125 55.7265625 C114.16967106 50.79937898 113.50039916 45.43584295 113 40 C111.63231533 35.96892939 110.32528127 34.31049576 107.25 31.375 C106.13625 30.199375 106.13625 30.199375 105 29 C105.1875 26.6875 105.1875 26.6875 106 25 C109.61908461 25.24675577 111.47990697 25.49520382 114.125 28.0625 C114.74375 29.031875 115.3625 30.00125 116 31 C116.37382812 31.556875 116.74765625 32.11375 117.1328125 32.6875 C120.65999487 38.60724663 120.40402123 44.26631278 120 51 C129.45619336 46.61813747 129.45619336 46.61813747 138.1875 41 C139.5796875 40.01 139.5796875 40.01 141 39 C141.99 39.33 142.98 39.66 144 40 C143.87890625 42.7578125 143.87890625 42.7578125 143 46 C140.27734375 48.1171875 140.27734375 48.1171875 136.9375 49.875 C135.83277344 50.47054687 134.72804688 51.06609375 133.58984375 51.6796875 C132.73519531 52.11539063 131.88054687 52.55109375 131 53 C131.66 53.99 132.32 54.98 133 56 C132.625 58.6875 132.625 58.6875 132 61 C128.32297872 60.29288052 125.33144966 58.66572483 122 57 C119.76474965 56.31363375 119.76474965 56.31363375 118 56 C117.6596875 57.0209375 117.6596875 57.0209375 117.3125 58.0625 C114.24402507 64.93003913 109.95795995 69.22770222 104 73.5625 C100.34052655 76.24845968 97.03746341 78.7784342 94.1875 82.33984375 C93.465625 83.21769531 92.74375 84.09554687 92 85 C91.34 85 90.68 85 90 85 C89.855625 85.78375 89.71125 86.5675 89.5625 87.375 C89 90 89 90 88 92 C87.92301833 93.37426528 87.86282315 94.74950052 87.8125 96.125 C87.15389019 101.76378263 85.28657632 105.25387285 81 109 C76.78798777 111.73633611 72.27398681 113.93209922 67.76660156 116.13330078 C55.50327108 121.77881386 55.50327108 121.77881386 47 131.625 C45.81060778 135.05252675 45.81060778 135.05252675 46 139 C46.59425781 138.61328125 47.18851563 138.2265625 47.80078125 137.828125 C55.99340211 132.68066182 64.00468757 129.60672919 73.42822266 127.55737305 C83.67316095 125.70024761 83.67316095 125.70024761 92 120 C96.64909993 112.54430057 98.71465829 104.7194399 100.3671875 96.171875 C101.56448718 90.17059514 102.87749765 84.93737017 108.05859375 81.09375 C115.9167976 76.6665929 124.98536908 74.21848966 134 75 C137 76 137 76 139 77 C139 78.32 139 79.64 139 81 C137.26363281 81.16435547 137.26363281 81.16435547 135.4921875 81.33203125 C133.95306137 81.49157481 132.41400221 81.65176539 130.875 81.8125 C130.11445313 81.88275391 129.35390625 81.95300781 128.5703125 82.02539062 C122.56261348 82.67277198 118.10818699 83.8989594 113.6953125 88.296875 C111.74724495 91.40301036 111.28689812 93.62179104 110.875 97.25 C110.19255756 102.60595447 109.24611148 107.74853019 108 113 C112.70842624 110.88673474 112.70842624 110.88673474 116 107 C116.66 107 117.32 107 118 107 C118.07476562 106.3709375 118.14953125 105.741875 118.2265625 105.09375 C119.23772116 98.5113054 121.17632004 93.70828092 126 89 C128.0703125 87.71875 128.0703125 87.71875 130 87 C130.66 87.33 131.32 87.66 132 88 C131.57682406 92.51387673 129.58699891 95.53488247 127.15625 99.23046875 C125.95369842 100.99687395 125.95369842 100.99687395 125 103 C125.67546875 102.55527344 126.3509375 102.11054688 127.046875 101.65234375 C127.93890625 101.08644531 128.8309375 100.52054687 129.75 99.9375 C130.63171875 99.36902344 131.5134375 98.80054687 132.421875 98.21484375 C135 97 135 97 137.328125 97.31640625 C137.87984375 97.54199219 138.4315625 97.76757812 139 98 C138.79296875 100.30078125 138.79296875 100.30078125 138 103 C135.92578125 104.73046875 135.92578125 104.73046875 133.3125 106.1875 C132.405 106.69925781 131.4975 107.21101563 130.5625 107.73828125 C128 109 128 109 124.8125 109.875 C121.04744648 111.38102141 119.39480142 113.82150686 117.00390625 117.02734375 C114.34208834 119.64765183 111.42892266 120.5497224 108 122 C105.80003186 123.6031398 103.71510586 125.20784545 101.625 126.9375 C94.62043362 132.48757172 88.94599157 135.67697187 80.0625 136.875 C73.79845458 137.76528046 68.97519585 140.10507576 64 144 C63.34 144.99 62.68 145.98 62 147 C61.34 147 60.68 147 60 147 C59.773125 147.680625 59.54625 148.36125 59.3125 149.0625 C57.93889522 152.13675831 56.26802485 154.50718739 54.21875 157.15625 C52.7798944 159.33298027 51.90299576 161.55856701 51 164 C51.63164062 163.66226563 52.26328125 163.32453125 52.9140625 162.9765625 C60.52734968 159.18088906 67.58396673 157.73632828 76 157 C77.13236084 156.88350098 77.13236084 156.88350098 78.28759766 156.76464844 C95.87832053 155.01090129 112.16219586 156.35137882 126.28125 167.859375 C131.09793923 172.24718095 134.15685922 176.86174609 137.25 182.5 C142.01936997 191.05101949 148.40858621 196.70891548 157.83203125 199.984375 C160.49370409 200.65296831 160.49370409 200.65296831 164 201 C164.5625 202.9375 164.5625 202.9375 165 205 C164 206 164 206 160.125 206.4375 C151.19529724 206.3379651 143.05954588 200.18419939 137 194 C134.99181844 191.29822963 133.27959414 188.45540267 131.5625 185.5625 C127.72347294 179.37908424 124.13808963 174.11846014 118 170 C117.45214844 169.5978125 116.90429688 169.195625 116.33984375 168.78125 C111.36137227 165.48580789 105.82605901 164.80068804 100 164 C101.92570119 165.69061559 103.85351015 167.37867493 105.78515625 169.0625 C107.13340945 170.24192431 108.47611462 171.42778333 109.80859375 172.625 C113.47727102 175.87851518 117.16628744 178.40966425 121.49609375 180.7265625 C121.99238281 181.14679688 122.48867188 181.56703125 123 182 C123 183.32 123 184.64 123 186 C120 187 120 187 117.765625 186.21484375 C112.34434619 183.46211367 107.08320458 180.61050583 103 176 C103 175.34 103 174.68 103 174 C102.01 174 101.02 174 100 174 C100.33 177.96 100.66 181.92 101 186 C100.01 186.33 99.02 186.66 98 187 C94.54554762 184.0669744 94.35445488 181.65243054 93.984375 177.296875 C94.00513421 174.24527061 94.78741507 171.78181249 96 169 C89.17212492 165.17099406 81.33075304 163.77115758 73.59375 165.5546875 C66.07057563 168.92817442 60.19857941 175.61642151 56.69140625 182.9453125 C51.97341113 196.96602115 54.76229177 216.33225181 58.3125 230.375 C58.51311035 231.16922363 58.7137207 231.96344727 58.92041016 232.78173828 C61.04812755 240.34823756 65.35105941 245.56543415 70.609375 251.265625 C72 253 72 253 72 255 C75.8387164 257.07930472 79.89627223 258.53959866 84 260 C84.90363281 260.35191406 85.80726563 260.70382812 86.73828125 261.06640625 C90.67563187 262.19338445 94.23589391 262.42345992 98.3125 262.4375 C99.06797119 262.44064209 99.82344238 262.44378418 100.60180664 262.44702148 C105.99577658 262.33134091 109.45020761 261.28897354 113.9296875 258.1796875 C117.65253901 256.05836457 121.79249281 256.09662334 126 256 C126.99 257.485 126.99 257.485 128 259 C126 262 126 262 123.87109375 262.6953125 C123.06800781 262.83710938 122.26492188 262.97890625 121.4375 263.125 C118.43064045 263.48491013 118.43064045 263.48491013 116 265 C118.65918166 265.88639389 120.48064641 266.17989025 123.23046875 266.31640625 C124.03291016 266.35830078 124.83535156 266.40019531 125.66210938 266.44335938 C126.91217773 266.50233398 126.91217773 266.50233398 128.1875 266.5625 C129.03248047 266.60568359 129.87746094 266.64886719 130.74804688 266.69335938 C132.83184433 266.79931518 134.91590103 266.9001502 137 267 C137.33 267.99 137.66 268.98 138 270 C137.67 270.66 137.34 271.32 137 272 C110.36282866 272.38773175 110.36282866 272.38773175 100.96484375 270.55859375 C97.46700594 269.89958083 93.97751041 269.55588562 90.4375 269.1875 C80.74439767 268.09741616 71.40165829 265.52380581 62 263 C62.33665915 265.48248124 62.33665915 265.48248124 64 268 C70.52773394 271.82273229 78.01686814 271.29957449 85.3125 271.0625 C87.43335265 271.00248791 89.55447933 270.95133368 91.67578125 270.91015625 C92.60302002 270.88058838 93.53025879 270.85102051 94.4855957 270.82055664 C97.1473981 271.01051923 98.72678345 271.64419227 101 273 C100.67 274.32 100.34 275.64 100 277 C94.39 277 88.78 277 83 277 C88.48223726 280.14721028 92.67903075 281.48666577 98.99609375 281.82421875 C101 282 101 282 102 283 C104.05769762 283.32381508 106.12154877 283.60887747 108.1875 283.875 C113.08159005 284.58491196 116.82269594 285.37426602 121 288 C120.67 289.65 120.34 291.3 120 293 C117.23723823 292.47731534 114.6739124 291.89130413 112 291 C109.26134713 290.92948886 106.54972412 290.90642235 103.8125 290.9375 C102.68811523 290.94426758 102.68811523 290.94426758 101.54101562 290.95117188 C99.69397617 290.96293646 97.84697787 290.98087135 96 291 C100.62500658 294.2820345 100.62500658 294.2820345 105.875 296.25 C107.421875 296.62125 107.421875 296.62125 109 297 C108.67 298.65 108.34 300.3 108 302 C100.66054039 301.96602102 96.26000185 300.09212263 91 295 C89.96176868 293.52733028 88.94284463 292.04090117 87.94140625 290.54296875 C83.83789674 285.18112241 79.39315791 283.66339458 73.0625 281.8125 C62.44842348 278.56711118 55.7342191 273.83938579 47.76171875 266.22265625 C47.18035156 265.81917969 46.59898437 265.41570312 46 265 C45.01 265.33 44.02 265.66 43 266 C42.32845316 268.28341743 42.32845316 268.28341743 43 271 C48.32140173 275.12680134 54.48813552 277.72366259 60.63110352 280.41357422 C64.59144938 282.18321078 67.67742467 284.23844968 71 287 C72.80430661 288.05579513 74.61705223 289.09728622 76.4375 290.125 C81.91080275 293.55879292 86.02884832 297.70707192 88 304 C87.13671875 306.30078125 87.13671875 306.30078125 86 308 C84.25 307.9375 84.25 307.9375 82 307 C80.40498463 304.75835678 79.25456982 302.46433357 78 300 C77.87044922 300.92232422 77.87044922 300.92232422 77.73828125 301.86328125 C76.59516024 308.43884892 76.59516024 308.43884892 73.8125 311.0625 C70.31748252 312.22750583 67.66078896 312.40675433 64 312 C62.0625 310.8125 62.0625 310.8125 61 309 C60.8125 306.3125 60.8125 306.3125 61 304 C62.32 303.67 63.64 303.34 65 303 C65.33 303.99 65.66 304.98 66 306 C67.65 306 69.3 306 71 306 C70.59037304 300.5383072 69.02295407 295.7966629 65 292 C61.07312421 290.46095103 57.16141753 289.63715484 53 289 C52.97421875 289.67546875 52.9484375 290.3509375 52.921875 291.046875 C52.45950704 298.31866197 52.45950704 298.31866197 50.1875 301.6875 C48 303 48 303 45.75 302.75 C45.1725 302.5025 44.595 302.255 44 302 C44.875 297.125 44.875 297.125 46 296 C46.24587593 292.92655088 46.32667328 291.70129861 45 289 C40.4516443 285.27318638 35.27066421 282.56647545 30 280 C29.0409375 280.86625 29.0409375 280.86625 28.0625 281.75 C22.61592719 285.7515637 16.76554256 288.3060982 10 289 C13.5005724 290.97468187 16.63924787 292.20927093 20.5625 292.9375 C25.42886822 293.92879723 28.47939467 295.7552969 31.3125 299.9375 C32.1786657 302.53599711 32.40837076 304.27752827 32 307 C30.3125 309.3125 30.3125 309.3125 28 311 C25.25 311.25 25.25 311.25 23 311 C22.505 309.515 22.505 309.515 22 308 C22.515625 307.5875 23.03125 307.175 23.5625 306.75 C24.2740625 305.88375 24.2740625 305.88375 25 305 C24.63350623 302.90850447 24.63350623 302.90850447 24 301 C23.05898437 300.76925781 22.11796875 300.53851563 21.1484375 300.30078125 C8.62427746 297.0206441 8.62427746 297.0206441 4 292 C3.67 291.34 3.34 290.68 3 290 C-2.02584039 291.47818835 -4.30016932 292.82974984 -6.9375 297.4375 C-8.68957124 300.76699872 -9 302.0810178 -9 306 C-7.35 306 -5.7 306 -4 306 C-3.67 305.01 -3.34 304.02 -3 303 C-1.68 303.33 -0.36 303.66 1 304 C0.74438677 306.3431213 0.40729228 308.67843403 0 311 C-3.8587129 312.92935645 -7.82026512 312.39324496 -11.8125 311.0625 C-15.20669579 307.86225826 -15.27486071 304.54860097 -16 300 C-17.65 302.64 -19.3 305.28 -21 308 C-22.32 307.67 -23.64 307.34 -25 307 C-26 304 -26 304 -25.171875 301.765625 C-21.64620124 295.5278945 -18.03030912 292.16061817 -11.78125 288.66796875 C-8.86860922 287.03172921 -8.86860922 287.03172921 -6.15625 284.5234375 C-2.77624545 281.62263037 0.8936728 280.07771528 5 278.4375 C10.05461247 276.3900019 14.66755082 274.35999542 19 271 C19.50241322 268.3295947 19.50241322 268.3295947 19 266 C18.01 265.67 17.02 265.34 16 265 C14.02987151 266.29511815 14.02987151 266.29511815 12.125 268.1875 C11.41601562 268.8371875 10.70703125 269.486875 9.9765625 270.15625 C9.32429688 270.7646875 8.67203125 271.373125 8 272 C2.25032984 277.03096139 -4.01226476 279.82040395 -11.29174805 281.92626953 C-20.87187358 284.76684379 -25.18599466 288.78595273 -31 297 C-35.73361705 301.14191492 -39.91364185 301.72949519 -46 302 C-46.33 300.35 -46.66 298.7 -47 297 C-45.07942708 296.31640625 -43.15885417 295.6328125 -41.23828125 294.94921875 C-38.66400675 293.85751072 -36.36832057 292.48071881 -34 291 C-36.56278699 290.94579299 -39.12441483 290.90622993 -41.6875 290.875 C-42.40873047 290.85824219 -43.12996094 290.84148437 -43.87304688 290.82421875 C-48.09367197 290.78567423 -51.17348298 291.25555842 -55 293 C-57.3125 292.625 -57.3125 292.625 -59 292 C-59 290.68 -59 289.36 -59 288 C-53.86083573 284.76966818 -48.69908877 284.19852669 -42.73046875 283.4296875 C-40.0929121 283.28910795 -40.0929121 283.28910795 -39 282 C-35.77280105 281.49859903 -32.53770521 281.09858323 -29.296875 280.6953125 C-25.53063152 280.08837663 -25.53063152 280.08837663 -21 277 C-26.61 277 -32.22 277 -38 277 C-38.33 275.68 -38.66 274.36 -39 273 C-35.74754721 271.06014933 -33.43539212 270.79026945 -29.67578125 270.91015625 C-28.64646484 270.93013672 -27.61714844 270.95011719 -26.55664062 270.97070312 C-24.41328076 271.03135208 -22.27003969 271.09637517 -20.12695312 271.16601562 C-10.65774045 271.38793157 -10.65774045 271.38793157 -2 268 C-0.72604933 265.46932453 -0.72604933 265.46932453 0 263 C-0.63800537 263.17128418 -1.27601074 263.34256836 -1.93334961 263.51904297 C-14.96066907 266.98379292 -27.56763056 269.80888177 -41 271 C-42.19625 271.17789062 -43.3925 271.35578125 -44.625 271.5390625 C-50.55635013 272.30065593 -56.53158968 272.1051315 -62.5 272.0625 C-64.30597656 272.05573242 -64.30597656 272.05573242 -66.1484375 272.04882812 C-69.09901073 272.0371195 -72.04947859 272.02071995 -75 272 C-75.33 271.01 -75.66 270.02 -76 269 C-75.67 268.34 -75.34 267.68 -75 267 C-73.73542969 266.93941406 -72.47085938 266.87882812 -71.16796875 266.81640625 C-69.50780129 266.73199096 -67.84764563 266.64734345 -66.1875 266.5625 C-65.35412109 266.52318359 -64.52074219 266.48386719 -63.66210938 266.44335938 C-62.85966797 266.40146484 -62.05722656 266.35957031 -61.23046875 266.31640625 C-60.49207764 266.27974854 -59.75368652 266.24309082 -58.99291992 266.20532227 C-56.792505 266.05157859 -56.792505 266.05157859 -54 265 C-56.89913593 262.73173484 -56.89913593 262.73173484 -60.5625 262.625 C-64 262 -64 262 -65.4375 259.9375 C-65.623125 259.298125 -65.80875 258.65875 -66 258 C-64 256 -64 256 -61.93359375 255.84765625 C-57.18420509 256.25644557 -53.89723945 256.84017913 -49.9375 259.5625 C-42.55126451 264.0675798 -32.54189726 263.00822288 -24.375 261.1953125 C-19.59783319 259.68488476 -15.9849217 258.01678454 -12 255 C-11.34 255 -10.68 255 -10 255 C-9.62488281 254.14728516 -9.62488281 254.14728516 -9.2421875 253.27734375 C-7.82525264 250.67962984 -6.09585741 248.76762914 -4.125 246.5625 C0.5242377 240.85202326 2.34073897 235.08882312 4 228 C4.17080078 227.36924561 4.34160156 226.73849121 4.51757812 226.08862305 C6.29486738 219.099837 6.51549538 212.1201495 6.75 204.9375 C6.80542969 203.70966797 6.86085938 202.48183594 6.91796875 201.21679688 C7.32179536 189.85458466 5.75878615 181.87205984 -1.63671875 173.046875 C-5.16769099 169.26992492 -8.74968561 165.86889006 -14 165 C-21.40090858 164.8789571 -27.47270109 165.3240478 -34 169 C-33.649375 169.804375 -33.29875 170.60875 -32.9375 171.4375 C-31.7929411 175.78682382 -31.76643093 179.65353179 -33 184 C-34.55078125 185.76953125 -34.55078125 185.76953125 -36 187 C-36.99 186.67 -37.98 186.34 -39 186 C-38.67 182.04 -38.34 178.08 -38 174 C-38.99 174 -39.98 174 -41 174 C-41.25523437 174.59683594 -41.51046875 175.19367188 -41.7734375 175.80859375 C-45.23251622 181.98866751 -52.48869351 185.09151362 -59 187 C-59.66 186.67 -60.32 186.34 -61 186 C-60.8125 183.703125 -60.8125 183.703125 -60 181 C-57.8125 179.296875 -57.8125 179.296875 -55 177.75 C-49.81178974 174.67901244 -45.88844488 171.20647826 -41.77734375 166.8203125 C-40 165 -40 165 -38 164 C-48.36453842 164.98232569 -56.47587472 168.90272292 -63.625 176.5625 C-66.11087364 179.58442696 -68.11309081 182.80146571 -70.12915039 186.15087891 C-75.83824974 195.56946276 -82.78854398 201.51823087 -93 206 C-95.5546875 206.29296875 -95.5546875 206.29296875 -97.875 206.1875 C-98.65617187 206.16042969 -99.43734375 206.13335937 -100.2421875 206.10546875 C-100.82226562 206.07066406 -101.40234375 206.03585938 -102 206 C-102.33 204.68 -102.66 203.36 -103 202 C-101.7315625 201.5978125 -101.7315625 201.5978125 -100.4375 201.1875 C-87.87530144 196.84783141 -80.4298871 191.45992096 -73.68261719 179.9921875 C-66.6295543 168.10985096 -57.67409995 161.1009056 -44.3125 157.5625 C-35.74432583 155.58171561 -27.28558583 155.94025339 -18.5625 156.5 C-17.29510986 156.57677979 -16.02771973 156.65355957 -14.72192383 156.73266602 C-5.32483763 157.48732072 2.62983442 159.69513705 11 164 C9.00095365 159.77979103 7.02789967 155.88426594 4.25 152.125 C2 149 2 149 2 147 C1.01 146.67 0.02 146.34 -1 146 C-1.5775 145.401875 -2.155 144.80375 -2.75 144.1875 C-7.89872788 139.18179234 -12.33533553 137.82771686 -19.3125 136.625 C-29.87693859 134.76510006 -36.58359125 129.46049943 -44.68359375 122.7421875 C-46.73805659 121.19700971 -48.35622994 120.28978736 -50.75 119.4375 C-54.04727638 117.97908929 -54.66125156 117.36777687 -56.6875 114.625 C-60.01131232 110.35794365 -64.10048068 109.00690838 -69.09765625 107.23828125 C-72.29609419 105.87367179 -74.52686683 104.44590601 -77 102 C-77 100.68 -77 99.36 -77 98 C-75.328125 97.31640625 -75.328125 97.31640625 -73 97 C-70.421875 98.21484375 -70.421875 98.21484375 -67.75 99.9375 C-66.85796875 100.50339844 -65.9659375 101.06929688 -65.046875 101.65234375 C-64.37140625 102.09707031 -63.6959375 102.54179687 -63 103 C-63.78741859 101.53936857 -64.5800905 100.08156827 -65.375 98.625 C-65.81585938 97.81289062 -66.25671875 97.00078125 -66.7109375 96.1640625 C-67.9443893 93.89185698 -67.9443893 93.89185698 -70 92 C-70 90.68 -70 89.36 -70 88 C-69.01 87.67 -68.02 87.34 -67 87 C-60.03431058 91.93403 -57.82486945 96.67450756 -56.33203125 104.98828125 C-56.22246094 105.65214844 -56.11289063 106.31601563 -56 107 C-55.34 107 -54.68 107 -54 107 C-53.566875 107.61875 -53.13375 108.2375 -52.6875 108.875 C-50.68780562 111.39313367 -49.01595927 112.02185105 -46 113 C-46.28875 111.783125 -46.5775 110.56625 -46.875 109.3125 C-47.78988513 105.32486274 -48.32359598 101.37273152 -48.8125 97.3125 C-49.66272262 91.62663626 -50.63137235 88.7590517 -55 85 C-59.43217852 82.75120093 -63.94091779 82.3731836 -68.8125 81.875 C-69.99489258 81.74544922 -69.99489258 81.74544922 -71.20117188 81.61328125 C-73.13343084 81.40248936 -75.06663263 81.20037104 -77 81 C-76.67 79.35 -76.34 77.7 -76 76 C-66.86337023 72.95445674 -56.94080217 75.99018073 -48.5625 79.9375 C-43.56761824 82.67958815 -41.13738344 85.06698908 -39.375 90.5625 C-38.38839396 94.13307425 -37.72814553 97.65109861 -37.1875 101.3125 C-35.85537247 108.92620448 -33.21039978 118.29858443 -26.6875 123.0625 C-21.28729026 125.80414495 -15.07305943 126.76472267 -9.1953125 128.04296875 C0.16345437 130.11313973 7.98512535 133.78424643 16 139 C15.55922809 133.49035108 14.33073227 130.38765417 11 126 C4.19322147 120.21588771 -3.82608263 116.41283372 -12.03588867 113.05322266 C-17.90745923 110.51174519 -22.10680594 106.78638812 -25 101 C-25.27169454 98.76606709 -25.44477833 96.53239492 -25.62109375 94.2890625 C-26.02386882 91.85580282 -26.8904462 90.18317063 -28 88 C-28 87.01 -28 86.02 -28 85 C-28.5775 84.773125 -29.155 84.54625 -29.75 84.3125 C-32 83 -32 83 -33.6875 80.8125 C-37.36210585 76.34338478 -42.09315156 73.13125435 -46.7421875 69.72265625 C-50.90910241 66.5165067 -53.67031263 62.66968308 -56 58 C-56 57.34 -56 56.68 -56 56 C-57.27259511 56.45341868 -58.54301243 56.91295227 -59.8125 57.375 C-60.52019531 57.63023438 -61.22789063 57.88546875 -61.95703125 58.1484375 C-64.24773359 59.0265769 -64.24773359 59.0265769 -67 61 C-69.1875 60.625 -69.1875 60.625 -71 60 C-70.125 55.25 -70.125 55.25 -69 53 C-69.85464844 52.56429687 -70.70929688 52.12859375 -71.58984375 51.6796875 C-72.69457031 51.08414063 -73.79929687 50.48859375 -74.9375 49.875 C-76.03964844 49.29492188 -77.14179687 48.71484375 -78.27734375 48.1171875 C-81 46 -81 46 -81.87890625 42.7578125 C-81.91886719 41.84773438 -81.95882812 40.93765625 -82 40 C-80.515 39.505 -80.515 39.505 -79 39 C-76.90625 40.2578125 -76.90625 40.2578125 -74.5 42.125 C-69.3080428 45.94621924 -63.9416871 48.54877167 -58 51 C-58.05800781 50.24976563 -58.11601563 49.49953125 -58.17578125 48.7265625 C-58.51894146 40.94172792 -57.4462403 35.46836602 -53 29 C-50.5 26.3125 -50.5 26.3125 -48 25 C-45.1875 25.25 -45.1875 25.25 -43 26 C-43.47548556 30.27937006 -46.06417851 32.06417851 -49 35 C-51.86510959 40.73021917 -51.77671304 46.74105028 -51 53 C-49.91898537 55.46335737 -48.73116549 57.38762699 -47.09375 59.51171875 C-46 61 -46 61 -46 63 C-45.21625 63.309375 -44.4325 63.61875 -43.625 63.9375 C-41 65 -41 65 -39 66 C-38.79375 64.989375 -38.5875 63.97875 -38.375 62.9375 C-37.09769141 58.39287305 -34.36139212 55.23351307 -31 52 C-28.29120665 50.64560332 -25.99066732 50.93498549 -23 51 C-23 52.65 -23 54.3 -23 56 C-23.763125 56.2475 -24.52625 56.495 -25.3125 56.75 C-28.44463315 58.20680612 -29.48717792 58.89473363 -31 62 C-31.64414748 65.15573167 -31.7983348 67.86328027 -31 71 C-29.42761229 72.59440995 -27.79789115 73.5712358 -25.87890625 74.71875 C-20.54758675 78.35424438 -18.82076423 84.16623217 -17.4375 90.1875 C-16.06301867 96.33933457 -16.06301867 96.33933457 -12 101 C-6.05639936 104.26799304 0.05337011 106.37116671 6.5625 108.17578125 C10.66967213 109.56458464 14.312803 111.74671294 18 114 C17.25943359 112.66195312 17.25943359 112.66195312 16.50390625 111.296875 C15.85653232 110.11471392 15.20941011 108.93241496 14.5625 107.75 C14.23701172 107.16347656 13.91152344 106.57695312 13.57617188 105.97265625 C10.70653063 100.70671664 9.85008419 97.02335246 9.8125 91.0625 C9.79832031 90.04285156 9.78414063 89.02320312 9.76953125 87.97265625 C10.00763284 84.90154927 10.80714882 82.81402345 12 80 C13.05243352 73.29379569 11.43250164 67.76614961 8 62 C5.1135453 58.51927522 1.67076502 55.95964356 -1.875 53.1875 C-10.75522042 46.0806768 -15.33527275 40.52977762 -17 29 C-17.18416195 26.27105467 -17.15790506 23.73702097 -17 21 C-15.35 20.67 -13.7 20.34 -12 20 C-11.83564453 20.92619141 -11.83564453 20.92619141 -11.66796875 21.87109375 C-9.45328703 34.25227787 -9.45328703 34.25227787 -2 44 C-1.67 44.99 -1.34 45.98 -1 47 C0.96672915 48.1500831 0.96672915 48.1500831 3 49 C3.33 49.33 3.66 49.66 4 50 C5.99030841 34.27491871 7.45588947 22.17160049 -0.6015625 8.03125 C-2 5 -2 5 -1.7734375 2.65625 C-1 1 -1 1 0 0 Z " fill="#754D33" transform="translate(177,27)"/>
<path d="M0 0 C3.18180029 0.2194345 4.01728258 1.01925774 6.1875 3.4375 C9.0894662 7.54027979 9.84681206 11.00573345 9 16 C5.98438409 19.90256176 2.21332794 22.47200324 -2 25 C-2.66 25 -3.32 25 -4 25 C-3.04713807 27.12745903 -2.08753373 29.25189929 -1.125 31.375 C-0.59132813 32.55835938 -0.05765625 33.74171875 0.4921875 34.9609375 C1.8096989 38.02247043 1.8096989 38.02247043 4 40 C6.54092171 40.09774992 6.54092171 40.09774992 9.375 39.75 C10.33148438 39.66234375 11.28796875 39.5746875 12.2734375 39.484375 C14.9170835 39.01473015 16.73753406 38.42566347 19 37 C19.495 36.01 19.495 36.01 20 35 C21.65 35.33 23.3 35.66 25 36 C24.70902736 39.49167166 24.24460417 40.76200675 21.6875 43.25 C15.60363543 47.21158623 8.01828339 46.83240105 1 46 C-4.20757867 43.47335998 -6.11728248 38.12346074 -8.04296875 32.953125 C-8.96279863 30.66145341 -8.96279863 30.66145341 -12 29 C-16.5468854 29.24577759 -19.52247047 31.16120038 -23 34 C-27.13829877 39.21651557 -30.16449189 45.00180976 -33 51 C-32.26394531 51.26683594 -31.52789062 51.53367188 -30.76953125 51.80859375 C-24.27860005 54.60088432 -19.33806447 59.43949034 -14.875 64.8125 C-11.47273711 68.73510898 -9.32268389 70.37902021 -4 71 C2.15922951 71.28260972 7.9269677 71.05617953 14 70 C20.05089047 69.56066142 24.79002923 69.48326973 30 73 C32 76 32 76 31.625 78.6875 C31.41875 79.450625 31.2125 80.21375 31 81 C29.0625 80.6875 29.0625 80.6875 27 80 C26.67 79.01 26.34 78.02 26 77 C20.06 77 14.12 77 8 77 C10.49947631 82.02127426 10.49947631 82.02127426 14.1875 84 C15.115625 84.66 16.04375 85.32 17 86 C17.375 88.75 17.375 88.75 17 91 C13.76852356 91.34316564 12.3499599 91.23597951 9.61328125 89.390625 C8.85402344 88.68421875 8.09476562 87.9778125 7.3125 87.25 C6.54550781 86.55390625 5.77851563 85.8578125 4.98828125 85.140625 C3 83 3 83 2.12890625 80.8046875 C1.07844479 78.66643096 1.07844479 78.66643096 -1.8984375 78.2421875 C-3.61933594 78.06042969 -3.61933594 78.06042969 -5.375 77.875 C-14.35332709 76.8819119 -14.35332709 76.8819119 -17.75 73 C-19 71 -19 71 -19 69 C-19.77923828 68.61328125 -19.77923828 68.61328125 -20.57421875 68.21875 C-22.45787669 67.27237113 -24.33403021 66.31104896 -26.20703125 65.34375 C-27.40878116 64.72902392 -28.61060596 64.11444423 -29.8125 63.5 C-30.40353516 63.19191406 -30.99457031 62.88382813 -31.60351562 62.56640625 C-39.87617932 58.36241357 -47.70786707 57.5087867 -56.79296875 56.87695312 C-61.60380819 56.4742358 -65.03232125 56.0210334 -69 53 C-68.67 51.68 -68.34 50.36 -68 49 C-67.154375 49.03480469 -66.30875 49.06960937 -65.4375 49.10546875 C-57.30228752 49.2996045 -51.01946114 49.31605544 -44.5 43.9375 C-41.55691858 40.47937933 -38.73770328 36.93322238 -35.921875 33.37109375 C-31.48892735 27.90198964 -27.14051028 23.1281922 -20.0078125 21.7890625 C-18.57888672 21.49902344 -18.57888672 21.49902344 -17.12109375 21.203125 C-15.13267406 20.81944037 -13.14308243 20.44177754 -11.15234375 20.0703125 C-5.05933451 18.82046445 -1.39692773 17.45654709 3 13 C2.525625 11.948125 2.05125 10.89625 1.5625 9.8125 C0.31515432 6.89808569 -0.62685249 4.17175383 -1 1 C-0.67 0.67 -0.34 0.34 0 0 Z " fill="#754D33" transform="translate(331,119)"/>
<path d="M0 0 C2.125 0.375 2.125 0.375 4 1 C3.33501617 5.38889325 1.81242323 8.9811485 0 13 C4.87226475 18.46284229 10.31195498 19.10286434 17.29296875 20.32421875 C27.80680003 22.24086028 33.60693229 25.69697774 40 34.4375 C47.16322566 44.19570638 47.16322566 44.19570638 58 49 C62.34682055 49.22930475 66.65214184 49.17895148 71 49 C71.495 50.98 71.495 50.98 72 53 C67.3615023 56.51459066 63.03015237 56.58160868 57.4375 56.9375 C46.52939378 57.83854877 37.41249731 60.21681031 27.9375 65.8515625 C26 67 26 67 23.8203125 68.02734375 C21.45522293 69.29109333 21.03104841 70.56967161 20 73 C17.49396654 76.75905019 16.33402331 76.91649417 12 78 C10.29208951 78.09159141 8.58369277 78.17439413 6.875 78.25 C4.29638845 78.40543138 4.29638845 78.40543138 2 79 C-0.30755015 81.66892836 -0.30755015 81.66892836 -2 85 C-4.99187786 88.21699489 -7.49529175 90.80790959 -11.9375 91.375 C-12.9584375 91.189375 -12.9584375 91.189375 -14 91 C-14.24609375 88.6953125 -14.24609375 88.6953125 -14 86 C-12.28515625 84.3046875 -12.28515625 84.3046875 -10.0625 82.875 C-6.60901189 80.71574792 -6.60901189 80.71574792 -5 77 C-10.94 77 -16.88 77 -23 77 C-23.66 78.32 -24.32 79.64 -25 81 C-26.32 80.67 -27.64 80.34 -29 80 C-28.8125 77.1875 -28.8125 77.1875 -28 74 C-25.5625 72.1875 -25.5625 72.1875 -23 71 C-22.01 70.505 -22.01 70.505 -21 70 C-16.68259649 69.73598612 -12.38851935 69.75851837 -8.125 70.5 C-0.67514416 71.69197694 6.91506916 71.76192219 14 69 C16.01373325 67.105389 17.65649818 65.37151189 19.375 63.25 C23.67989115 58.24072656 28.00927723 54.0019446 34 51 C34.66 51 35.32 51 36 51 C29.74020206 37.45749678 29.74020206 37.45749678 18 29 C15.25846122 28.8138532 15.25846122 28.8138532 13 30 C10.7081097 32.2918903 9.83710033 34.40724917 8.625 37.4375 C6.73753582 41.57540225 5.84791163 43.51017483 2 46 C-4.53425083 46.75124321 -11.00921546 46.99539227 -17 44 C-19.875 41.625 -19.875 41.625 -22 39 C-21.8125 36.6875 -21.8125 36.6875 -21 35 C-19.68 35 -18.36 35 -17 35 C-16.566875 35.45375 -16.13375 35.9075 -15.6875 36.375 C-12.44399641 39.49837382 -8.09185255 39.89501418 -3.75 40.3125 C-0.46734446 39.93947096 -0.02202806 39.52357548 2 37 C2.96518649 34.96903012 3.85624756 32.90186425 4.6875 30.8125 C5.12449219 29.72582031 5.56148437 28.63914063 6.01171875 27.51953125 C6.33785156 26.68808594 6.66398437 25.85664063 7 25 C6.06671875 24.70996094 5.1334375 24.41992188 4.171875 24.12109375 C-0.53717537 22.45668801 -3.24571353 20.1314297 -6 16 C-6.60454335 9.85380929 -6.00436887 6.94657331 -2 2 C-1.34 1.34 -0.68 0.68 0 0 Z " fill="#754D33" transform="translate(82,119)"/>
</svg>
