<?xml version="1.0" encoding="UTF-8"?>
<svg version="1.1" xmlns="http://www.w3.org/2000/svg" width="384" height="384">
<path d="M0 0 C1.32 0.66 2.64 1.32 4 2 C5.31597339 4.89965015 6.5337131 7.84458276 7.6875 10.8125 C9.61187142 15.41218705 9.61187142 15.41218705 12 19 C16.6815131 18.38444484 16.6815131 18.38444484 21 16 C25 18.5625 25 18.5625 28 22 C28.33 23.32 28.66 24.64 29 26 C27.68 26.66 26.36 27.32 25 28 C22 25.5 22 25.5 19 23 C17.68 23.66 16.36 24.32 15 25 C11.18771009 33.04816758 10.81440868 42.19766886 11 51 C12.9636546 55.90913649 14.31256773 57.48815974 18 61 C20.35360398 63.74587131 21.85423387 65.56270161 23 69 C23.09249438 71.04401825 23.13168555 73.09062835 23.140625 75.13671875 C23.16962891 76.96299805 23.16962891 76.96299805 23.19921875 78.82617188 C23.23281401 81.38070351 23.25128195 83.93548319 23.25390625 86.49023438 C23.37501632 92.54255063 23.61082736 96.26265247 26.484375 101.70703125 C27.31453125 102.79371094 28.1446875 103.88039063 29 105 C29.33 105.99 29.66 106.98 30 108 C30.66 108 31.32 108 32 108 C32.99 106.02 32.99 106.02 34 104 C34.68964844 103.05253906 35.37929687 102.10507813 36.08984375 101.12890625 C38.86828972 95.12314471 38.55912724 89.47727721 38.5625 82.9375 C38.57146492 80.44653236 38.59315419 77.95557094 38.62890625 75.46484375 C38.62963135 74.367771 38.63035645 73.27069824 38.63110352 72.14038086 C39.05778589 68.50807422 40.14696363 66.13622735 42 63 C44.5 60.3125 44.5 60.3125 47 58 C50.31441407 55.20008168 50.31441407 55.20008168 51 51 C51.2505617 46.32284833 51.13843613 44.27687226 49 40 C45.54271642 39.24988633 45.54271642 39.24988633 42 40 C41.01 41.65 40.02 43.3 39 45 C37.68 44.67 36.36 44.34 35 44 C35 41.1875 35 41.1875 36 38 C40 34 40 34 42 33 C43.36125 33.226875 44.7225 33.45375 46.125 33.6875 C48.043125 33.3471875 48.043125 33.3471875 50 33 C50.40068947 27.91236076 50.40068947 27.91236076 50.10546875 24.2265625 C49.82871742 15.76002179 54.66940024 7.98198737 59 1 C60.32 1 61.64 1 63 1 C63.33 2.32 63.66 3.64 64 5 C62.6015625 8.03125 62.6015625 8.03125 60.625 11.5 C54.56554619 23.26816079 56.02158829 33.46171761 57.52734375 46.265625 C57.68332031 47.49796875 57.83929688 48.7303125 58 50 C58.99 49.01 59.98 48.02 61 47 C61.66 47 62.32 47 63 47 C63.33 46.01 63.66 45.02 64 44 C64.78375 43.29875 65.5675 42.5975 66.375 41.875 C70.97638636 36.83538637 71.84692371 30.98406189 72.875 24.375 C73.431875 22.209375 73.431875 22.209375 74 20 C75.65 20.33 77.3 20.66 79 21 C80.01452332 27.72121701 78.54948615 34.73923654 76 41 C71.41452296 47.6358936 65.52016216 52.32721712 59 57 C54.22100514 61.01870022 52.09015023 65.11661417 50 71 C49.55015208 76.69807365 49.85935952 79.64839879 52 85 C52.63190862 96.75350034 49.90803698 103.7806928 44 114 C46.3203125 112.63875 46.3203125 112.63875 48.6875 111.25 C52.95060129 108.90419555 57.00932164 107.26553428 61.6875 105.9375 C67.12930137 104.35866583 71.50610202 102.57847432 76 99 C78.22489773 95.08724882 79.17857157 91.35064882 80.375 87 C81.99231329 82.02365143 83.60838839 78.94373443 87 75 C88.093125 74.38125 89.18625 73.7625 90.3125 73.125 C91.6428125 72.073125 91.6428125 72.073125 93 71 C93.75 66.5 93.75 66.5 93 62 C90.2352141 57.59147026 90.2352141 57.59147026 85 56 C85 54.35 85 52.7 85 51 C91 51 91 51 93.625 52.625 C97.86456276 56.86456276 99.81555679 60.07778393 101 66 C102.65 65.01 104.3 64.02 106 63 C106.66 63 107.32 63 108 63 C108.66 61.35 109.32 59.7 110 58 C110.99 56.35 111.98 54.7 113 53 C113.71834826 47.37293867 113.6393974 41.88453972 111.8125 36.5 C110.00036048 33.84236764 110.00036048 33.84236764 107.25 31.375 C106.13625 30.199375 106.13625 30.199375 105 29 C105.33 27.68 105.66 26.36 106 25 C108.8125 24.9375 108.8125 24.9375 112 26 C115.78963096 29.67817123 118.07479826 34.11823844 120 39 C120.31941593 43.06756227 120.18596919 46.90867772 120 51 C129.39639886 46.52478043 129.39639886 46.52478043 138.1875 41 C139.5796875 40.01 139.5796875 40.01 141 39 C141.99 39.33 142.98 39.66 144 40 C144.07421875 42.83203125 144.07421875 42.83203125 143 46 C140.20703125 48.01171875 140.20703125 48.01171875 136.8125 49.6875 C133.49122944 51.24547525 133.49122944 51.24547525 131 53 C131.66 53.99 132.32 54.98 133 56 C132.67 57.65 132.34 59.3 132 61 C128.24355786 60.06088947 125.43800243 58.71900121 122 57 C120.68 56.67 119.36 56.34 118 56 C117.34 57.65 116.68 59.3 116 61 C112.63192565 66.33478919 109.05506489 69.82022675 104 73.5625 C99.30511744 77.04824794 95.70603673 80.49319462 92 85 C91.34 85 90.68 85 90 85 C89.67 86.65 89.34 88.3 89 90 C88.67 90.66 88.34 91.32 88 92 C87.938125 93.36125 87.87625 94.7225 87.8125 96.125 C87 101 87 101 84.875 105.0625 C79.37625133 110.64993816 72.98683954 113.58043688 66 117 C54.92612405 122.54580286 54.92612405 122.54580286 47 131.625 C45.81060778 135.05252675 45.81060778 135.05252675 46 139 C47.423125 138.0925 48.84625 137.185 50.3125 136.25 C58.42319141 131.42436517 66.53667753 129.05976647 75.6875 127.0625 C84.56854739 125.04783401 84.56854739 125.04783401 92 120 C96.64909993 112.54430057 98.71465829 104.7194399 100.3671875 96.171875 C101.46509793 90.6687684 102.69339242 86.43726834 106.5 82.25 C113.57602208 77.70112867 121.57946351 75.20721265 130 74.8125 C134 75 134 75 139 77 C139 78.32 139 79.64 139 81 C135.4921875 81.72265625 135.4921875 81.72265625 130.875 82.0625 C125.20680358 82.4936705 120.81997721 82.86352207 116 86 C113.34795002 88.64305998 112.15658801 90.37687658 111.2421875 94.015625 C111.12101563 95.08296875 110.99984375 96.1503125 110.875 97.25 C110.19482262 102.5881778 109.24387771 107.75794396 108 113 C112.70842624 110.88673474 112.70842624 110.88673474 116 107 C116.66 107 117.32 107 118 107 C118.37125 104.7725 118.37125 104.7725 118.75 102.5 C120.10948324 96.51827373 121.94979795 93.5362263 126 89 C127.32 88.34 128.64 87.68 130 87 C130.66 87.33 131.32 87.66 132 88 C130.92299679 93.38501606 128.98216026 96.45220561 126 101 C125.67 101.66 125.34 102.32 125 103 C126.5675 101.989375 128.135 100.97875 129.75 99.9375 C132.421875 98.21484375 132.421875 98.21484375 135 97 C136.32 97.33 137.64 97.66 139 98 C138.67 99.65 138.34 101.3 138 103 C133.64031969 105.96458261 129.89043275 108.48105768 124.8125 109.875 C121.52318458 110.94321698 121.52318458 110.94321698 118.5625 114.9375 C114.86540468 119.15348589 112.98551088 119.89135672 108 122 C105.82774712 123.5829434 103.70240057 125.23197978 101.625 126.9375 C94.75090144 132.32234118 88.77775352 135.69966047 80.0625 136.875 C73.53903116 137.80215114 69.38256834 140.23220216 64 144 C63.34 144.99 62.68 145.98 62 147 C61.34 147 60.68 147 60 147 C59.34 148.65 58.68 150.3 58 152 C56.33333333 154.33333333 54.66666667 156.66666667 53 159 C52.34 160.65 51.68 162.3 51 164 C53.289375 162.824375 53.289375 162.824375 55.625 161.625 C62.35206003 158.59910514 68.69299319 157.64410442 76 157 C77.55332031 156.84273437 79.10664063 156.68546875 80.70703125 156.5234375 C94.1090869 155.46456091 107.52456182 156.04715814 119.5625 162.6875 C127.37733389 168.5211084 132.52653256 173.90483794 137.25 182.5 C141.73577798 190.30305785 146.96689674 194.9636624 155 199 C157.98142397 199.74535599 160.97719854 200.44581973 164 201 C164.33 202.32 164.66 203.64 165 205 C164.67 205.33 164.34 205.66 164 206 C159.723916 206.48278368 156.23505954 206.49850867 152.203125 204.87109375 C143.06973395 200.03947943 136.9198676 194.48613905 131.5625 185.5625 C126.01189252 176.73923612 120.66543593 170.4231656 111 166 C107.33701515 165.13140603 103.73128557 164.55278305 100 164 C102.66376966 166.33664005 105.33100599 168.66932917 108 171 C109.155 172.03125 110.31 173.0625 111.5 174.125 C115.01426692 177.16107957 115.01426692 177.16107957 119.4375 179.625 C121.2009375 180.800625 121.2009375 180.800625 123 182 C123 183.32 123 184.64 123 186 C122.01 186.33 121.02 186.66 120 187 C113.40430759 184.13608093 108.19192802 181.07906002 103 176 C103 175.34 103 174.68 103 174 C102.01 174 101.02 174 100 174 C100.226875 175.959375 100.45375 177.91875 100.6875 179.9375 C101.07421875 183.27734375 101.07421875 183.27734375 101 186 C100.01 186.33 99.02 186.66 98 187 C97.01 186.01 96.02 185.02 95 184 C94.11568546 179.30633053 93.56285623 176.12408399 95.3125 171.625 C95.6528125 170.325625 95.6528125 170.325625 96 169 C90.66273415 165.60955755 85.59272675 165.1817389 79.40625 164.8828125 C74.61873747 165.0475205 71.9035319 166.24060676 68 169 C62.5088568 173.84512635 58.74597274 178.1899876 56 185 C52.47277051 202.01591154 55.11010587 222.83851152 61 239 C63.29600349 242.88697156 65.73903413 245.83757202 68.75 249.25 C69.8225 250.4875 70.895 251.725 72 253 C72 253.66 72 254.32 72 255 C75.94116871 256.97058435 79.86136304 258.49504111 84 260 C84.90363281 260.35191406 85.80726563 260.70382812 86.73828125 261.06640625 C93.32718454 262.95233186 100.22573311 262.65309567 107 262 C111.879105 259.69774575 111.879105 259.69774575 116 257 C121.4375 256 121.4375 256 126 256 C126.99 257.485 126.99 257.485 128 259 C127.34 259.99 126.68 260.98 126 262 C123.01618718 262.73573467 120.01512464 263.40546838 117 264 C116.67 264.33 116.34 264.66 116 265 C121.43867576 266.81289192 127.37251586 266.35241359 133.0703125 266.5234375 C134.36710938 266.68070312 135.66390625 266.83796875 137 267 C137.33 267.99 137.66 268.98 138 270 C137.67 270.66 137.34 271.32 137 272 C132.88903424 272.20494551 128.86090857 272.28198059 124.75 272.25 C123.5552002 272.24468262 122.36040039 272.23936523 121.12939453 272.23388672 C113.19995531 272.14832113 105.8005113 271.49371493 98 270 C95.48016633 269.72001848 92.95922314 269.44991916 90.4375 269.1875 C80.74388659 268.02426639 71.41451121 265.52725608 62 263 C62.66 264.65 63.32 266.3 64 268 C71.02072025 271.29340778 77.71434607 271.30940506 85.3125 271.0625 C96.49230769 270.74615385 96.49230769 270.74615385 101 273 C100.67 274.32 100.34 275.64 100 277 C96.18359375 277.390625 96.18359375 277.390625 91.4375 277.25 C89.86871094 277.21390625 88.29992187 277.1778125 86.68359375 277.140625 C85.46800781 277.09421875 84.25242187 277.0478125 83 277 C89.10012147 280.50192159 94.01396281 281.5215043 101 282 C101.33 282.33 101.66 282.66 102 283 C104.05769762 283.32381508 106.12154877 283.60887747 108.1875 283.875 C117.5900616 285.29210774 117.5900616 285.29210774 121 288 C120.67 289.65 120.34 291.3 120 293 C115 292 115 292 112 291 C109.27165796 290.92975432 106.54165885 290.91566673 103.8125 290.9375 C101.62560547 290.95103516 101.62560547 290.95103516 99.39453125 290.96484375 C97.71423828 290.98224609 97.71423828 290.98224609 96 291 C99.4358622 293.42216101 101.80347595 294.95320856 105.9375 295.9375 C106.948125 296.288125 107.95875 296.63875 109 297 C108.67 298.65 108.34 300.3 108 302 C102.58625389 302.24986521 99.50922604 301.30862184 94.875 298.5 C91 295 91 295 87.94140625 290.54296875 C84.93531898 286.61506802 83.58164606 285.80602166 78.78515625 283.58203125 C76.89667969 282.99808594 75.00820312 282.41414063 73.0625 281.8125 C63.32504156 278.75748057 57.17971662 274.90321952 49.6875 268.0625 C48.470625 267.051875 47.25375 266.04125 46 265 C45.01 265.33 44.02 265.66 43 266 C43 267.65 43 269.3 43 271 C48.85061618 275.53721254 55.77450558 278.27411738 62.51171875 281.25390625 C65.78540296 282.89258133 68.20093961 284.67356784 71 287 C72.80430661 288.05579513 74.61705223 289.09728622 76.4375 290.125 C82.41818702 293.87711123 85.0837019 297.58414419 88 304 C87.34 305.32 86.68 306.64 86 308 C84.68 307.67 83.36 307.34 82 307 C79.75 303.4375 79.75 303.4375 78 300 C77.6596875 302.1346875 77.6596875 302.1346875 77.3125 304.3125 C76.879375 305.859375 76.44625 307.40625 76 309 C71 312 71 312 67.375 312.375 C66.26125 312.25125 65.1475 312.1275 64 312 C63.01 311.01 62.02 310.02 61 309 C61 307.35 61 305.7 61 304 C62.32 303.67 63.64 303.34 65 303 C65.33 303.99 65.66 304.98 66 306 C67.65 306 69.3 306 71 306 C70.71203934 302.16052455 69.72699563 299.36926576 68.1875 295.8125 C65.4266667 291.89022232 65.4266667 291.89022232 62 290.82421875 C59.02956641 290.08511322 56.01476049 289.53006778 53 289 C52.9175 290.5675 52.835 292.135 52.75 293.75 C52.5025 295.4825 52.255 297.215 52 299 C50.68 300.32 49.36 301.64 48 303 C46.68 302.67 45.36 302.34 44 302 C45 297 45 297 46 296 C46.46452357 292.69582233 46.46452357 292.69582233 45 289 C40.43145399 285.25664292 35.26282003 282.63141002 30 280 C28.2866438 281.27277889 26.63072616 282.62294236 25 284 C20.0232075 286.45334842 15.5449489 288.43128729 10 289 C13.5864696 291.0231367 16.49089697 292.10086924 20.5625 292.9375 C24.94717129 293.98735087 26.90960267 294.81595426 30 298 C32 302 32 302 32 307 C30.68 308.32 29.36 309.64 28 311 C26.35 311 24.7 311 23 311 C22.505 309.515 22.505 309.515 22 308 C22.99 307.01 23.98 306.02 25 305 C24.67 303.68 24.34 302.36 24 301 C20.96257627 299.8045903 20.96257627 299.8045903 17.3125 299.0625 C11.755321 297.63076244 7.99025449 296.3322763 4 292 C3.67 291.34 3.34 290.68 3 290 C-0.46968105 290.70666029 -0.46968105 290.70666029 -4 293 C-8.01465433 299.0209859 -8.01465433 299.0209859 -9 306 C-7.35 306 -5.7 306 -4 306 C-3.67 305.01 -3.34 304.02 -3 303 C-1.68 303.33 -0.36 303.66 1 304 C0.875 307.5 0.875 307.5 0 311 C-3.06429776 312.53214888 -5.6165642 312.22938548 -9 312 C-11.475 310.515 -11.475 310.515 -14 309 C-15.3125 304.3125 -15.3125 304.3125 -16 300 C-16.7425 301.340625 -17.485 302.68125 -18.25 304.0625 C-19.61125 306.0115625 -19.61125 306.0115625 -21 308 C-22.32 307.67 -23.64 307.34 -25 307 C-25.495 305.515 -25.495 305.515 -26 304 C-23.01161458 297.69118634 -20.45379537 293.8882881 -14.5 290.1875 C-13.6028125 289.68605469 -12.705625 289.18460937 -11.78125 288.66796875 C-8.86860922 287.03172921 -8.86860922 287.03172921 -6.15625 284.5234375 C-2.59876588 281.67921133 0.79022519 280.15569408 5 278.4375 C12.41789885 275.44486428 12.41789885 275.44486428 19 271 C19 269.35 19 267.7 19 266 C18.01 265.67 17.02 265.34 16 265 C13.26348271 267.25100615 10.60217716 269.59495747 8 272 C1.65461027 277.55221601 -5.4245868 280.215283 -13.4375 282.5625 C-19.57084993 284.65147197 -23.17808158 286.50412716 -27.1875 291.625 C-28.45987612 293.41557137 -29.73094437 295.20707373 -31 297 C-34.77889409 300.30653233 -36.84514748 300.96581178 -41.8125 302.0625 C-43.194375 302.041875 -44.57625 302.02125 -46 302 C-46.33 300.35 -46.66 298.7 -47 297 C-43.375 295.375 -43.375 295.375 -39 294 C-36.525 292.515 -36.525 292.515 -34 291 C-36.56226563 290.94580402 -39.12486254 290.907119 -41.6875 290.875 C-43.82798828 290.84019531 -43.82798828 290.84019531 -46.01171875 290.8046875 C-50.27854253 290.79673649 -50.27854253 290.79673649 -55 293 C-56.32 292.67 -57.64 292.34 -59 292 C-59 290.68 -59 289.36 -59 288 C-54.22797227 284.45506511 -48.46491659 284.16836214 -42.73046875 283.4296875 C-41.82941406 283.28789062 -40.92835938 283.14609375 -40 283 C-39.67 282.67 -39.34 282.34 -39 282 C-35.77280105 281.49859903 -32.53770521 281.09858323 -29.296875 280.6953125 C-25.53063152 280.08837663 -25.53063152 280.08837663 -21 277 C-22.21558594 277.04640625 -23.43117188 277.0928125 -24.68359375 277.140625 C-26.25238281 277.17671875 -27.82117188 277.2128125 -29.4375 277.25 C-31.00371094 277.29640625 -32.56992188 277.3428125 -34.18359375 277.390625 C-35.44300781 277.26171875 -36.70242187 277.1328125 -38 277 C-38.33 275.68 -38.66 274.36 -39 273 C-32.98398879 269.99199439 -26.71593056 270.95190416 -20.12695312 271.16601562 C-13.47913345 271.2859825 -8.05720365 270.8414238 -2 268 C-1.34 266.35 -0.68 264.7 0 263 C-1.53527344 263.40992188 -3.07054687 263.81984375 -4.65234375 264.2421875 C-16.7583136 267.41060797 -28.5058662 269.89208002 -41 271 C-42.19753906 271.17402344 -43.39507812 271.34804688 -44.62890625 271.52734375 C-50.5714712 272.16992673 -56.46444588 272.22364345 -62.4375 272.25 C-64.2309082 272.2809375 -64.2309082 272.2809375 -66.06054688 272.3125 C-69.04215389 272.32606046 -72.02364667 272.17744051 -75 272 C-75.33 271.01 -75.66 270.02 -76 269 C-75.67 268.34 -75.34 267.68 -75 267 C-72.04941493 266.71550025 -69.08722864 266.54747215 -66.125 266.4375 C-59.95594446 266.31139012 -59.95594446 266.31139012 -54 265 C-56.89913593 262.73173484 -56.89913593 262.73173484 -60.5625 262.625 C-62.2640625 262.315625 -62.2640625 262.315625 -64 262 C-64.99 260.02 -64.99 260.02 -66 258 C-65.34 257.34 -64.68 256.68 -64 256 C-58.32048056 256.07780164 -54.78399331 256.50548114 -49.9375 259.5625 C-42.65698089 263.15668032 -35.97925372 262.80672602 -28 262 C-21.93557743 260.65380275 -17.02020038 258.76515029 -12 255 C-11.34 255 -10.68 255 -10 255 C-9.34 253.68 -8.68 252.36 -8 251 C-6.72125 249.535625 -5.4425 248.07125 -4.125 246.5625 C0.5242377 240.85202326 2.34073897 235.08882312 4 228 C4.34804687 226.67226562 4.69609375 225.34453125 5.0546875 223.9765625 C6.26263704 217.61735707 6.5391229 211.39646164 6.75 204.9375 C6.80542969 203.70966797 6.86085938 202.48183594 6.91796875 201.21679688 C7.21208674 192.9413861 6.81581689 186.37223136 2.8125 178.9375 C-0.90727355 173.72981703 -4.68166942 169.51401181 -10.0625 166 C-16.06900636 164.47453807 -21.92423901 164.89785277 -28 166 C-31.41355033 167.24031424 -31.41355033 167.24031424 -34 169 C-33.32350658 171.78734084 -33.32350658 171.78734084 -32 175 C-32.1875 179.6875 -32.1875 179.6875 -33 184 C-33.99 184.99 -34.98 185.98 -36 187 C-36.99 186.67 -37.98 186.34 -39 186 C-39.1105229 181.94555483 -38.4675009 178.03750777 -38 174 C-38.99 174 -39.98 174 -41 174 C-41.66 175.32 -42.32 176.64 -43 178 C-48.03278981 182.25183967 -52.66008983 185.14175047 -59 187 C-59.66 186.67 -60.32 186.34 -61 186 C-60.67 184.35 -60.34 182.7 -60 181 C-57.36082656 179.28453726 -54.71265328 177.57991472 -52.00390625 175.9765625 C-47.34461628 172.91076182 -43.84287684 169.02587097 -40 165 C-39.34 164.67 -38.68 164.34 -38 164 C-46.89603512 165.03979631 -52.94777638 167.44001806 -60 173 C-64.65727304 177.57697523 -67.89839455 182.45149415 -71.25 188 C-76.68896864 196.67445768 -83.70304042 201.86529955 -93 206 C-97.8125 206.4375 -97.8125 206.4375 -102 206 C-102.33 204.68 -102.66 203.36 -103 202 C-100.5 200.9375 -100.5 200.9375 -97 200 C-90.66412296 197.68496801 -84.90302452 194.66080923 -80 190 C-77.28861365 186.06183609 -74.86963324 182.01015672 -72.4375 177.89453125 C-68.29428612 171.27468472 -63.43601767 166.74001262 -57.0625 162.1875 C-44.20244117 156.63068445 -32.40529307 155.63371617 -18.5625 156.5 C-17.29510986 156.57677979 -16.02771973 156.65355957 -14.72192383 156.73266602 C-5.21840791 157.4958678 2.43339671 159.71669836 11 164 C8.43009738 158.57465003 5.50167778 153.86344136 2 149 C2 148.34 2 147.68 2 147 C1.01 146.67 0.02 146.34 -1 146 C-2.98 144.02 -2.98 144.02 -5 142 C-9.61586207 138.61503449 -13.77411571 137.57970132 -19.3125 136.625 C-29.69916552 134.71328105 -36.73172792 129.33763177 -44.68359375 122.7421875 C-47.0952048 120.7788178 -47.0952048 120.7788178 -50.75 119.4375 C-54 118 -54 118 -56.6875 114.625 C-60.54512894 110.4034438 -63.80089181 109.11294048 -69.09765625 107.23828125 C-72.29609419 105.87367179 -74.52686683 104.44590601 -77 102 C-77 100.68 -77 99.36 -77 98 C-75.02 97.505 -75.02 97.505 -73 97 C-69.4370684 98.67889656 -66.32019562 100.85934756 -63 103 C-65.98080122 97.1287011 -65.98080122 97.1287011 -70 92 C-70 90.68 -70 89.36 -70 88 C-69.01 87.67 -68.02 87.34 -67 87 C-62.70196888 90.04443871 -60.76344169 92.39426384 -58 97 C-57.33333333 100.33333333 -56.66666667 103.66666667 -56 107 C-55.34 107 -54.68 107 -54 107 C-53.01 108.32 -52.02 109.64 -51 111 C-49.35 111.66 -47.7 112.32 -46 113 C-46.28875 111.783125 -46.5775 110.56625 -46.875 109.3125 C-47.73282872 105.26164216 -48.31951757 101.40660167 -48.8125 97.3125 C-49.44708436 93.0687171 -49.98540666 91.02327046 -52.3125 87.3125 C-56.01855725 84.12356702 -59.41562229 83.08790082 -64.20703125 82.3671875 C-65.72683594 82.20476562 -67.24664062 82.04234375 -68.8125 81.875 C-70.34519531 81.70742187 -71.87789062 81.53984375 -73.45703125 81.3671875 C-74.62621094 81.24601562 -75.79539062 81.12484375 -77 81 C-76.67 79.35 -76.34 77.7 -76 76 C-67.72017068 73.93004267 -61.06164378 75.43493152 -53 78 C-47.81286655 80.26480475 -45.04412849 81.95587151 -41 86 C-39.1815497 91.10564892 -38.00709053 95.95363885 -37.1875 101.3125 C-35.75551059 108.17097557 -33.66549635 114.01771138 -30 120 C-24.11445024 125.44135733 -16.8257608 126.37754047 -9.1953125 128.04296875 C0.16013425 130.1771256 7.9352364 133.8572522 16 139 C15.55922809 133.49035108 14.33073227 130.38765417 11 126 C3.59827813 119.71033004 -5.23892706 115.8884073 -14.1171875 112.15234375 C-18.53403367 109.70397128 -20.97156235 107.0055024 -24 103 C-25 101 -25 101 -25.4375 96.625 C-25.74272094 91.9546309 -25.74272094 91.9546309 -28 88 C-28 87.01 -28 86.02 -28 85 C-29.98 84.01 -29.98 84.01 -32 83 C-32.556875 82.278125 -33.11375 81.55625 -33.6875 80.8125 C-37.75114876 75.87022448 -43.15363463 72.38477403 -48.25 68.5625 C-51.63660068 65.40680391 -53.75367073 62.03017898 -56 58 C-56 57.34 -56 56.68 -56 56 C-61.72307239 58.04454874 -61.72307239 58.04454874 -67 61 C-68.32 60.67 -69.64 60.34 -71 60 C-70 55 -70 55 -69 53 C-72.00014504 51.17546038 -75.10945937 49.63141034 -78.2421875 48.046875 C-79.15226562 47.37140625 -80.06234375 46.6959375 -81 46 C-82.0703125 42.828125 -82.0703125 42.828125 -82 40 C-80.515 39.505 -80.515 39.505 -79 39 C-76.59987734 40.66675185 -74.20497303 42.34213637 -71.8515625 44.07421875 C-67.47936133 47.02695187 -62.85184469 48.94729648 -58 51 C-58.1546875 48.339375 -58.1546875 48.339375 -58.3125 45.625 C-58.3125 39.0244249 -56.52723354 34.64357366 -53 29 C-50.5 26.3125 -50.5 26.3125 -48 25 C-46.35 25.33 -44.7 25.66 -43 26 C-44.1545423 30.61816921 -45.71217819 31.71217819 -49 35 C-51.48262151 41.20655378 -51.82109776 46.383387 -51 53 C-48.70788944 57.59106691 -48.70788944 57.59106691 -46 61 C-46 61.66 -46 62.32 -46 63 C-44.35 63.66 -42.7 64.32 -41 65 C-40.01 65.495 -40.01 65.495 -39 66 C-38.79375 64.989375 -38.5875 63.97875 -38.375 62.9375 C-36.7421543 58.26162369 -34.40880362 55.55083711 -31 52 C-29 51 -29 51 -23 51 C-23 52.65 -23 54.3 -23 56 C-24.65 56.66 -26.3 57.32 -28 58 C-31.33190603 61.77231764 -31.33190603 61.77231764 -31.625 66.4375 C-31.315625 68.6959375 -31.315625 68.6959375 -31 71 C-27.79900026 73.6678683 -27.79900026 73.6678683 -24 76 C-20.46883096 80.57446899 -18.71389839 84.63141289 -17.4375 90.1875 C-16.32186254 95.64487508 -16.32186254 95.64487508 -14.5 98.9375 C-9.07921589 103.40964689 -2.52399146 105.55395372 4.125 107.5 C9.23492179 109.07228363 13.42078011 111.26723974 18 114 C17.25943359 112.66195312 17.25943359 112.66195312 16.50390625 111.296875 C15.86324219 110.12640625 15.22257812 108.9559375 14.5625 107.75 C13.92441406 106.58984375 13.28632813 105.4296875 12.62890625 104.234375 C9.52894272 98.07905173 9.47515437 91.76961906 10 85 C10.66 83.35 11.32 81.7 12 80 C12.62633508 72.90153581 11.399361 68.24747427 8 62 C5.1135453 58.51927522 1.67076502 55.95964356 -1.875 53.1875 C-12.65193685 44.56273832 -12.65193685 44.56273832 -15.09375 38.109375 C-16.61579188 32.50036882 -17.87531388 26.79895448 -17 21 C-15.35 20.67 -13.7 20.34 -12 20 C-10.875 24.375 -10.875 24.375 -10 30 C-8.30787225 36.20446843 -6.78547856 39.71825603 -2 44 C-1.67 44.99 -1.34 45.98 -1 47 C0.32 47.66 1.64 48.32 3 49 C3.33 49.33 3.66 49.66 4 50 C6.85345339 32.37531968 6.85345339 32.37531968 3.33203125 15.30078125 C2.07075989 12.85124625 0.76248639 10.42507493 -0.6015625 8.03125 C-1.29378906 6.53078125 -1.29378906 6.53078125 -2 5 C-1 1 -1 1 0 0 Z " fill="#754D33" transform="translate(177,27)"/>
<path d="M0 0 C1.32 0.33 2.64 0.66 4 1 C6.01114848 3.24099402 7.65302365 5.30604731 9 8 C9.375 11.8125 9.375 11.8125 9 16 C5.98438409 19.90256176 2.21332794 22.47200324 -2 25 C-2.66 25 -3.32 25 -4 25 C-3.04713807 27.12745903 -2.08753373 29.25189929 -1.125 31.375 C-0.59132813 32.55835938 -0.05765625 33.74171875 0.4921875 34.9609375 C1.8096989 38.02247043 1.8096989 38.02247043 4 40 C9.62544618 39.73835134 13.93195289 39.53402356 19 37 C19.495 36.01 19.495 36.01 20 35 C21.65 35.33 23.3 35.66 25 36 C24.67 37.65 24.34 39.3 24 41 C20.94010793 43.97719228 19.20085081 44.9497873 15 46 C10.27554375 46.44967716 5.71816684 46.55959653 1 46 C-4.67290391 42.18546117 -6.3733973 37.15893047 -9 31 C-9.99 30.34 -10.98 29.68 -12 29 C-17.09396673 30.01879335 -19.05520124 30.77975611 -23 34 C-26.96997869 39.39917101 -30.13866296 44.94717164 -33 51 C-31.35 51.66 -29.7 52.32 -28 53 C-22.94124475 56.59244938 -18.83485426 60.04529682 -14.875 64.8125 C-11.44878685 69.02910851 -11.44878685 69.02910851 -7.75 70.5625 C-0.4004765 71.41994441 6.70226385 71.26917151 14 70 C18.94296511 69.75285174 22.8420043 69.56575161 27.5 71.3125 C30 73 30 73 32 76 C31.67 77.65 31.34 79.3 31 81 C29.02 80.505 29.02 80.505 27 80 C26.67 79.01 26.34 78.02 26 77 C21.80311689 76.63220038 21.80311689 76.63220038 16.9375 76.8125 C15.27589844 76.83957031 13.61429687 76.86664063 11.90234375 76.89453125 C10.61457031 76.92933594 9.32679688 76.96414062 8 77 C10.49947631 82.02127426 10.49947631 82.02127426 14.1875 84 C15.115625 84.66 16.04375 85.32 17 86 C17 87.65 17 89.3 17 91 C12 91 12 91 9.61328125 89.390625 C8.85402344 88.68421875 8.09476562 87.9778125 7.3125 87.25 C6.54550781 86.55390625 5.77851563 85.8578125 4.98828125 85.140625 C3 83 3 83 1 79 C-1.96558954 78.1472492 -1.96558954 78.1472492 -5.375 77.875 C-9.65451712 77.40164483 -12.07929946 76.96035027 -16 75 C-16.99 73.68 -17.98 72.36 -19 71 C-19 70.34 -19 69.68 -19 69 C-20.32 68.34 -21.64 67.68 -23 67 C-24.05832031 66.4534375 -25.11664063 65.906875 -26.20703125 65.34375 C-27.39683594 64.7353125 -28.58664062 64.126875 -29.8125 63.5 C-30.99457031 62.8915625 -32.17664063 62.283125 -33.39453125 61.65625 C-41.86004233 57.76743451 -50.17813206 57.3645263 -59.3828125 56.66015625 C-64 56 -64 56 -69 53 C-68.67 51.68 -68.34 50.36 -68 49 C-65.33984375 48.71484375 -65.33984375 48.71484375 -61.9375 48.9375 C-56.23186965 49.09998235 -52.16884052 48.67672098 -47 46 C-42.65505465 42.41542009 -39.40331143 37.77524171 -35.921875 33.37109375 C-32.61769579 29.29459623 -29.19493252 26.14619939 -25 23 C-19.44737169 21.65311833 -13.86466055 20.57404141 -8.2578125 19.4765625 C-3.16202343 18.04550138 -0.4674631 16.95762804 3 13 C2.03907051 9.39535396 2.03907051 9.39535396 0 6 C-0.495 3.525 -0.495 3.525 -1 1 C-0.67 0.67 -0.34 0.34 0 0 Z " fill="#754D33" transform="translate(331,119)"/>
<path d="M0 0 C1.32 0.33 2.64 0.66 4 1 C3 6 3 6 1.0625 9.5 C0.5365625 11.2325 0.5365625 11.2325 0 13 C1.82916662 16.13140365 1.82916662 16.13140365 6 18 C9.74541333 18.94594057 13.48848153 19.65591334 17.29296875 20.32421875 C24.23690464 21.59007851 29.73535522 23.27942185 35 28 C36.71951645 30.10372091 38.38394303 32.25329801 40 34.4375 C45.73479797 42.24966855 45.73479797 42.24966855 53.5 47.8125 C58.66119198 49.17448122 63.0459063 49.06128971 68.33984375 48.71484375 C69.65662109 48.85599609 69.65662109 48.85599609 71 49 C71.495 50.98 71.495 50.98 72 53 C66.5291879 56.28248726 63.70321413 56.51213878 57.4375 56.9375 C45.41602742 57.99872985 36.46184113 60.78828183 26 67 C24.02 67.99 24.02 67.99 22 69 C21.34 70.32 20.68 71.64 20 73 C18 76 18 76 15.5 77.125 C12 78 12 78 6.875 78.25 C5.26625 78.4975 3.6575 78.745 2 79 C-0.30755015 81.66892836 -0.30755015 81.66892836 -2 85 C-5.4375 88.375 -5.4375 88.375 -9 91 C-10.65 91 -12.3 91 -14 91 C-14 89.35 -14 87.7 -14 86 C-11.38903699 83.92780713 -8.72090404 81.92556286 -6 80 C-5.505 78.515 -5.505 78.515 -5 77 C-7.95755205 76.89245265 -10.91619882 76.8146228 -13.875 76.75 C-15.52242187 76.70359375 -17.16984375 76.6571875 -18.8671875 76.609375 C-20.23101562 76.73828125 -21.59484375 76.8671875 -23 77 C-23.66 78.32 -24.32 79.64 -25 81 C-26.32 80.67 -27.64 80.34 -29 80 C-29.0625 77.125 -29.0625 77.125 -28 74 C-21.41566686 70.04940011 -18.75595259 69.81533446 -11 70 C-10.05125 70.165 -9.1025 70.33 -8.125 70.5 C-0.62522948 71.69996328 6.88872465 71.77219209 14 69 C16.86361008 66.41362751 16.86361008 66.41362751 19.375 63.25 C23.8983424 58.05907466 28.03002735 54.41141294 34 51 C34.66 51 35.32 51 36 51 C32.26011965 43.08025338 28.72948707 35.68261351 21.4375 30.4375 C20.303125 29.963125 19.16875 29.48875 18 29 C16.35 29.33 14.7 29.66 13 30 C9.93926215 33.71990953 9.93926215 33.71990953 8.625 37.4375 C6.73753582 41.57540225 5.84791163 43.51017483 2 46 C-4.891355 46.7922995 -10.53683226 46.5852671 -17 44 C-19.875 41.625 -19.875 41.625 -22 39 C-21.67 37.68 -21.34 36.36 -21 35 C-19.68 35 -18.36 35 -17 35 C-16.01 35.99 -15.02 36.98 -14 38 C-9.27395958 39.69424091 -6.14269057 40 -1 40 C2.09935806 36.90064194 3.09200265 34.82280415 4.6875 30.8125 C5.12449219 29.72582031 5.56148437 28.63914063 6.01171875 27.51953125 C6.33785156 26.68808594 6.66398437 25.85664063 7 25 C6.06671875 24.70996094 5.1334375 24.41992188 4.171875 24.12109375 C0.73345583 22.90579042 -1.3248094 21.45225805 -4 19 C-6 16 -6 16 -6.375 12.1875 C-5.95878842 7.53980403 -4.89828114 5.58022964 -2 2 C-1.34 1.34 -0.68 0.68 0 0 Z " fill="#754D33" transform="translate(82,119)"/>
</svg>
