<?xml version="1.0" standalone="no"?>
<!DOCTYPE svg PUBLIC "-//W3C//DTD SVG 20010904//EN" "http://www.w3.org/TR/2001/REC-SVG-20010904/DTD/svg10.dtd">
<!-- Created using Krita: https://krita.org -->
<svg xmlns="http://www.w3.org/2000/svg" 
    xmlns:xlink="http://www.w3.org/1999/xlink"
    xmlns:krita="http://krita.org/namespaces/svg/krita"
    xmlns:sodipodi="http://sodipodi.sourceforge.net/DTD/sodipodi-0.dtd"
    width="276.48pt"
    height="276.48pt"
    viewBox="0 0 276.48 276.48">
<defs/>
<path id="shape0" transform="translate(16.5607681297854, 2.66625415565802)" fill="#76ab41" fill-rule="evenodd" stroke="none" stroke-width="0.18" stroke-linecap="square" stroke-linejoin="bevel" d="M245.339 122.344C244.65 120.554 243.251 115.211 235.551 113.422C239.603 110.342 240.181 98.2719 238.665 96.1886C236.629 93.3903 234.492 89.4466 230.465 89.3454C231.605 86.5449 236.205 79.8311 230.082 71.6473C229.234 70.0659 223.654 75.1139 222.035 74.7538C221.182 74.5592 223.86 72.6716 223.792 70.8291C223.906 69.7832 221.968 68.6299 221.661 68.1128C224.498 66.366 226.288 61.4343 224.315 55.8003C223.48 50.4022 218.044 47.7662 212.754 47.926C214.502 46.0282 215.71 41.1642 213.041 37.9601C211.291 35.1288 200.925 32.5393 196.727 33.7333C197.785 26.639 196.354 27.1934 193.364 26.0748C191.24 25.2801 189.032 28.6084 187.989 27.4932C188.071 23.3343 186.623 18.628 177.831 20.0783C177.47 15.1635 175.401 14.3966 173.009 13.1907C169.261 14.5717 162.453 19.4517 160.422 17.6685C161.648 16.606 166.504 5.86991 160.539 2.40884C153.331 -4.06628 138.001 7.48205 137.175 8.47262C136.514 6.45081 137.298 1.88224 133.387 0.292118C132.226 -0.50123 129.332 0.392838 127.791 2.11092C126.075 4.02218 125.712 6.79285 124.53 6.0258C124.616 3.7849 123.279 2.76303 120.655 2.2203C117.405 1.54824 118.931 5.44549 116.488 4.20651C112.011 1.93547 109.303 1.92375 107.279 1.92375C106.24 1.92375 102.498 3.49144 103.791 9.48734C98.4297 5.42747 93.8039 6.29328 91.9564 7.71744C90.7215 8.3838 91.0027 11.4424 89.6525 11.4888C84.538 10.6529 77.8023 5.69041 77.3677 19.6871C75.3849 20.4357 70.8392 21.7166 68.6324 22.3056C65.8663 19.1839 67.5464 16.8864 65.7117 16.6687C61.1339 16.1257 55.3677 23.8285 55.6961 29.5245C47.58 27.9757 41.0184 28.2161 41.9566 34.6147C37.1501 33.719 31.0451 30.7168 27.3184 35.608C25.4092 40.3454 26.3795 40.8868 28.2909 46.9497C19.3429 51.1843 14.8544 63.7916 16.6519 75.7122C11.9318 71.9892 6.74368 71.1489 4.48378 73.0675C1.39482 75.6427 6.65394 87.1873 11.6898 89.9584C8.11646 89.3981 7.77205 89.2596 4.75897 89.4664C2.15459 89.6452 0.0201257 93.9648 0.0442389 94.5225C0.0442389 97.0065 -0.965306 104.789 6.66093 110.717C4.9774 115.119 4.42464 116.052 9.29137 124.709C3.0515 129.663 -2.50943 146.393 15.1952 150.681C11.6228 154.71 11.1515 159.249 20.7203 159.146C20.154 165.074 17.8631 170.789 22.7759 172.764C35.488 177.606 47.4652 173.535 49.3989 167.936C51.9529 171.124 55.5682 177.543 61.3358 176.351C67.856 174.385 69.3618 163.994 66.6514 158.908C72.0269 170.095 85.5123 166.896 90.9879 148.192C89.4139 162.388 101.492 156.877 102.181 143.98C112.248 144.894 120.77 141.614 122.759 141.604C125.519 141.604 126.655 141.06 141.19 142.59C139.609 147.239 141.058 153.586 145.735 155.712C149.261 157.735 154.951 153.875 153.273 144.479C159.78 156.635 168.399 160.732 175.018 156.895C176.654 161.422 187.654 165.03 189.78 158.981C196.679 168.554 210.178 171.776 218.37 170.419C228.618 170.581 225.166 159.841 221.776 155.751C226.78 155.787 232.6 153.89 228.811 147.853C232.745 147.408 243.982 147.023 243.703 138.498C244.533 131.501 227.526 124.081 227.739 125.516C233.288 123.937 240.026 127.838 245.339 122.344Z" sodipodi:nodetypes="ccccccccccccccccccccccsccccccccccccccccccccccccccccccccccccccc"/>
</svg>
