<?xml version="1.0" standalone="no"?>
<!DOCTYPE svg PUBLIC "-//W3C//DTD SVG 20010904//EN" "http://www.w3.org/TR/2001/REC-SVG-20010904/DTD/svg10.dtd">
<!-- Created using Krita: https://krita.org -->
<svg xmlns="http://www.w3.org/2000/svg" 
    xmlns:xlink="http://www.w3.org/1999/xlink"
    xmlns:krita="http://krita.org/namespaces/svg/krita"
    xmlns:sodipodi="http://sodipodi.sourceforge.net/DTD/sodipodi-0.dtd"
    width="276.48pt"
    height="276.48pt"
    viewBox="0 0 276.48 276.48">
<defs/>
<path id="shape0" transform="matrix(0.72 0 0 0.72 41.265013254914 12.4236746952069)" fill="#754d33" stroke-opacity="0" stroke="#000000" stroke-width="0" stroke-linecap="square" stroke-linejoin="bevel" d="M106.141 12.1199C107.679 13.717 110.097 17.3787 111.625 21.1668C113.153 24.9549 113.04 28.9656 115.937 29.3543C118.835 29.743 120.414 25.0211 125.281 26.3855C130.148 27.75 129.011 28.0833 130.344 30.6355C131.677 33.1877 133.156 41.0377 131.719 40.7449C130.281 40.4521 127.05 32.7151 125.625 32.1043C124.2 31.4934 121.604 31.6699 119.125 34.6668C116.646 37.6636 116.563 63.4461 117.375 65.6668C118.187 67.8874 118.944 68.1997 121.937 71.3543C124.931 74.5088 126.425 76.5938 126.937 79.3543C127.45 82.1148 127.059 83.5548 127.078 85.491C127.098 87.4272 127.105 86.9716 127.137 89.1804C127.169 91.3893 126.271 94.7908 126.316 99.0945C126.362 103.398 128.402 108.903 130.422 112.061C132.442 115.219 132.915 118.344 135.062 118.479C137.21 118.614 138.055 114.84 140.027 111.483C142 108.126 142.491 97.8071 142.5 93.2918C142.509 88.7764 142.553 87.6131 142.566 85.8191C142.58 84.0252 142.428 84.8803 142.569 82.4947C142.709 80.109 143.762 76.267 145.937 73.3543C148.113 70.4415 148.037 70.9183 150.937 68.3543C153.838 65.7902 154.458 65.7916 154.937 61.3543C155.417 56.9169 151.963 51.9055 151.187 50.9793C150.412 50.053 148.007 48.8783 145.937 50.3543C143.868 51.8302 143.522 51.559 142.281 52.073C141.04 52.587 137.194 60.5384 136.172 59.2293C135.15 57.9201 135.658 53.4036 137.922 49.6668C140.186 45.93 147.967 42.3713 152.062 43.5418C152.285 40.3919 154.195 37.2799 154.043 34.5808C153.701 28.5078 157.984 11.7552 161.625 9.72927C164.143 8.32801 170.812 3.19008 173.538 2.87844C178.642 -3.09684 179.576 1.49681 176.406 5.26833C173.236 9.03986 170.061 7.76139 164.625 13.1043C159.189 18.4472 157.416 48.1017 161.09 56.1199C161.698 57.4477 162.465 58.1742 163.333 58.4336C166.301 56.1784 174.658 49.1925 176.937 43.9793C179.67 37.7314 178.709 37.7861 178.359 34.0105C178.01 30.235 172.398 17.0797 173.555 17.4018C174.096 16.9397 179.091 20.5525 181.578 27.9324C184.066 35.3122 184.192 41.6847 180.687 48.1668C177.182 54.6489 168.566 62.9814 162.937 67.3543C157.309 71.7272 155.174 75.5563 153.937 81.3543C152.701 87.1522 154.074 86.907 155.937 95.3543C157.801 103.802 146.626 123.051 147.937 124.354C149.249 125.658 160.565 117.744 165.625 116.292C170.685 114.839 176.668 113.176 179.937 109.354C183.207 105.532 182.914 102.02 184.312 97.3543C185.711 92.6884 188.48 87.3735 190.937 85.3543C193.395 83.335 195.445 83.8816 196.937 81.3543C198.43 78.8269 197.636 77.9559 195.937 73.4793C194.239 69.0027 193.931 67.6591 188.812 66.2293C185.622 65.3381 181.31 63.779 182.161 62.6469C182.676 61.9626 187.219 61.3749 188.937 61.3543C193.5 61.2995 193.839 61.8034 197.375 64.6043C200.911 67.4051 201.363 74.0171 204.937 76.3543C208.512 78.6914 215.418 69.0863 216.937 63.3543C218.457 57.6223 217.719 50.8008 215.75 46.8543C213.781 42.9077 210.058 40.9049 208.937 39.3543C207.817 37.8036 201.285 32.8687 202.594 31.823C203.903 30.7773 211.338 35.0416 214.937 37.2293C218.537 39.417 222.899 44.8602 223.937 49.3543C224.976 53.8484 223.691 58.2648 223.937 59.6043C224.184 60.9437 237.352 58.0895 242.375 54.7293C247.398 51.369 247.517 39.0951 250.469 40.2293C253.42 41.3634 249.297 54.0681 247.375 56.6668C245.453 59.2654 244.233 59.4254 240.875 61.0418C237.517 62.6581 234.432 63.2174 234.937 63.3543C235.467 63.4979 239.27 70.146 235.937 71.3543C232.605 72.5625 232.988 66.3142 230.562 65.4168C228.136 64.5193 221.78 67.7441 219.937 71.3543C218.095 74.9645 212.812 80.3026 207.937 83.9168C203.063 87.5309 198.593 94.1001 195.937 95.3543C193.282 96.6084 193.335 99.1957 192.937 100.354C192.54 101.513 192.083 103.329 191.75 106.479C191.417 109.629 192.431 110.451 188.812 115.417C185.194 120.383 178.973 122.881 169.937 127.354C160.902 131.828 154.801 135.323 150.937 141.979C147.074 148.636 148.775 147.767 148.156 150.479C149.788 149.63 149.493 149.535 154.25 146.604C159.007 143.673 170.609 139.423 179.625 137.417C188.641 135.41 189.912 136.62 195.937 130.354C201.963 124.088 206.441 113.832 207.82 106.807C209.2 99.7829 211.206 96.3594 216.531 91.8543C221.857 87.3491 228.008 88.073 234.219 88.073C240.429 88.073 245.132 91.7446 243.922 93.2293C242.712 94.7139 236.674 92.2194 231.672 92.4168C226.67 92.6141 223.608 93.384 219.937 96.3543C216.267 99.3245 215.61 102.001 215.18 104.37C214.75 106.739 215.2 104.384 214.812 107.604C214.424 110.825 210.14 121.868 211.937 123.354C213.735 124.84 221.873 116.992 222.687 112.854C223.502 108.716 225.114 104.358 228.062 102.104C231.011 99.8501 231.177 99.7293 232.187 99.7293C233.197 99.7293 234.583 99.8345 233.75 101.511C232.917 103.187 230.318 105.75 228.844 108.292C227.369 110.834 227.849 112.169 227.859 114.386C231.502 113.555 232.544 113.111 234.687 111.729C236.831 110.347 237.274 109.397 239.594 107.886C241.914 106.374 243.153 106.036 243.75 106.979C244.347 107.922 243.667 109.714 241.875 112.417C240.083 115.119 233.353 118.307 228.75 119.542C224.147 120.776 215.439 130.373 211.937 132.354C208.435 134.336 210.017 133.72 205.562 137.292C201.108 140.864 191.619 146.174 184 147.229C176.381 148.284 171.917 153.227 167.937 154.354C163.958 155.481 151.359 173.366 154.937 174.354C158.516 175.342 180.148 167.372 184.645 166.878C189.141 166.383 213.648 166.69 223.5 173.042C233.352 179.394 236.579 184.657 241.187 192.854C245.795 201.051 253.379 207.061 259 209.104C264.621 211.147 271.592 207.048 272.25 211.011C272.908 214.973 260.976 215.878 254.328 212.788C247.681 209.698 240.954 204.79 235.5 195.917C230.046 187.043 221.711 178.682 214.937 176.354C208.164 174.027 204.372 173.416 203.937 174.354C203.503 175.292 211.344 184.421 213.687 186.479C216.031 188.538 219.812 190.484 222.875 192.354C225.938 194.224 225.491 191.918 223.187 195.854C220.884 199.791 204.56 187.176 203.937 184.354C203.315 181.532 202.186 188.176 202.5 190.104C202.814 192.033 204.857 195.115 203.937 196.354C203.018 197.594 202.962 197.596 201.937 197.354C200.913 197.112 200.325 196.981 198.937 194.354C197.55 191.727 196.675 184.409 197.625 181.479C198.575 178.549 197.993 183.85 196.937 178.417C195.882 172.984 189.488 173.962 183.344 175.237C177.2 176.513 176.677 175.606 171.937 179.354C167.198 183.103 163.503 183.571 159.937 195.354C156.372 207.137 160.317 239.579 164.937 249.354C169.558 259.129 175.553 262.324 175.937 263.354C176.322 264.385 186.959 270.168 190.676 271.421C194.392 272.673 205.143 273.949 210.937 272.354C216.732 270.76 219.259 269.305 224.016 267.401C228.773 265.497 234.361 265.128 235.187 266.073C236.014 267.018 237.382 267.813 231.937 269.354C226.493 270.896 218.848 276.501 219.047 277.089C219.313 277.872 226.019 278.147 231.805 278.331C237.59 278.515 240.157 280.153 241.75 281.011C243.343 281.868 246.731 284.25 244.969 285.401C243.206 286.552 236.639 282.987 232.719 282.886C228.799 282.784 229.647 282.623 225.067 282.588C220.487 282.553 195.051 280.386 189.875 279.604C184.699 278.822 167.65 271.426 165.937 273.354C164.225 275.282 164.878 275.111 167.937 278.354C170.997 281.597 179.738 282.266 189.531 283.198C199.325 284.13 203.849 285.984 204.984 286.542C206.12 287.1 207.245 288.107 206.281 288.995C205.317 289.883 198.533 287.687 195.375 287.604C192.217 287.521 192.037 287.538 190.621 287.495C189.205 287.452 187.352 287.996 187.312 288.057C187.273 288.119 204.851 292.801 205.937 293.354C207.024 293.907 206.385 293.427 212.125 294.229C217.865 295.031 221.773 296.179 224.937 301.542C228.102 306.905 229.05 309.924 224.359 305.932C219.669 301.941 217.385 300.171 210.078 299.479C202.771 298.787 200.411 298.404 199.984 298.901C199.558 299.398 206.669 305.95 210.203 306.432C213.737 306.915 215.387 307.337 216.172 308.245C216.957 309.153 217.561 309.445 212.547 310.057C207.533 310.67 201.963 307.047 198.953 304.448C195.943 301.849 194.729 303.164 191.691 298.975C188.654 294.786 186.105 295.237 182.723 293.936C179.34 292.636 182.844 293.987 177 292.167C171.156 290.346 158.045 282.267 153.625 278.417C149.204 274.567 149.571 274.124 146.984 276.386C144.398 278.647 160.15 291.009 165.137 293.358C170.123 295.707 174.695 299.201 178.625 301.542C182.555 303.882 189.825 313.588 191.562 316.464C193.3 319.339 190.675 322.059 189.516 320.182C188.356 318.306 188.268 317.147 186.781 314.682C185.295 312.217 182.857 310.209 181.937 310.354C181.018 310.499 181.657 312.808 181.25 314.667C180.843 316.525 182.047 316.589 179.937 319.354C177.828 322.119 174.806 322.644 172.437 322.636C170.069 322.627 169.024 321.751 167.937 321.229C166.851 320.707 165.984 319.549 165.437 318.229C164.891 316.909 164.12 315.563 165.875 314.495C167.63 313.427 169.041 315.708 169.937 316.354C170.834 317.001 172.875 319.233 175.125 315.854C177.375 312.476 175.552 307.523 173.422 304.573C171.292 301.623 165.951 299.636 162.75 298.741C159.549 297.846 157.701 298.035 157.516 298.417C157.455 300.892 157.648 302.618 157.484 304.292C157.321 305.966 156.716 307.797 155.937 309.354C155.159 310.911 146.997 313.934 147.125 312.604C147.253 311.274 150.389 309.467 151.906 306.886C153.423 304.304 154.4 299.314 149.219 294.229C144.038 289.145 136.653 280.251 135.062 280.901C133.472 281.552 127.943 290.958 122.344 293.995C116.744 297.032 114.34 295.935 115.391 297.011C116.441 298.086 120.271 302.351 124.5 303.292C128.729 304.232 131.39 304.764 133.937 308.354C136.485 311.945 132.806 320.066 131.281 320.698C129.756 321.33 126.342 323.743 125.016 322.479C123.689 321.215 129.081 317.795 129.406 316.62C129.732 315.445 131.006 311.713 128.875 310.323C126.744 308.933 125.813 309.26 121.203 308.198C116.594 307.136 113.035 304.399 111.172 301.698C109.308 298.997 109.363 298.57 107.875 298.761C106.387 298.951 103.925 299.414 99.9375 303.354C95.9502 307.294 92.8316 313.588 94.9375 316.354C97.0433 319.12 98.5642 317.595 99.8906 316.706C101.217 315.817 100.895 314.733 101.57 313.753C102.246 312.772 103.792 312.832 104.937 314.354C106.083 315.877 104.999 318.112 103 320.604C101.001 323.097 97.849 323.268 94.9375 322.354C92.026 321.441 92.1389 322.24 89.9375 319.354C87.7361 316.469 89.4936 310.521 88.5469 310.354C87.6001 310.188 86.733 312.741 85.6875 314.417C84.6419 316.093 84.8408 316.491 82.9375 318.354C81.0341 320.217 78.5966 320.121 80.3984 316.042C82.2002 311.962 84.2892 306.896 87.75 304.854C91.2108 302.813 92.2371 301.098 94.1562 300.022C96.0753 298.947 96.6564 298.566 99.7812 295.878C102.906 293.19 105.75 292.963 111.562 290.604C117.375 288.246 120.763 284.407 122.75 280.667C124.737 276.927 124.167 278.291 124.031 276.479C123.895 274.668 122.817 272.579 120.25 274.386C117.683 276.192 117.983 274.695 113.531 278.698C109.08 282.701 101.317 286.086 94.25 288.323C87.183 290.56 78.9758 295.994 76.875 297.792C74.7742 299.59 73.9005 303.178 71.375 304.526C68.8495 305.875 65.54 308.936 62.3437 309.261C59.1474 309.585 55.2101 310.971 54.2812 310.198C53.3524 309.425 53.9148 309.177 56.9375 307.354C59.9602 305.531 61.5535 305.875 64.9375 304.354C68.3215 302.833 70.6021 300.545 70.4062 299.807C70.2103 299.07 66.4765 299.107 64.0625 299.511C61.6484 299.914 56.8948 300.746 54.3125 301.417C51.7302 302.088 45.4132 306.753 44.3437 305.12C43.2743 303.487 46.2215 300.582 48.625 299.042C51.0284 297.502 58.3316 295.758 61.6445 295.284C64.9574 294.81 68.2165 293.236 68.8125 292.932C69.4085 292.629 72.1569 292.212 75.6719 291.331C79.1868 290.449 83.2272 288.234 82.9375 287.354C82.6477 286.475 80.6645 287.452 79.2539 287.495C77.8433 287.538 76.0912 287.562 74.5 287.604C72.9087 287.646 71.19 287.797 69.7539 287.745C68.3178 287.693 63.7594 289.996 62.4687 288.386C61.1781 286.775 62.9878 286.359 65.3125 285.042C67.6371 283.724 77.4421 283.041 84.0605 283.208C90.6789 283.375 99.2348 281.219 101.937 278.354C104.64 275.49 109.229 270.459 107.781 269.511C106.333 268.562 91.6549 279.056 83.375 279.854C79.0122 280.275 66.0292 278.839 61.9352 278.035C55.0608 277.902 53.1651 278.424 51.2031 278.339C47.0559 278.159 42.9075 279.125 40.5019 279.151C38.0964 279.177 32.8852 279.853 31.5625 278.839C30.2397 277.824 29.2844 278.315 29.3437 277.479C29.4031 276.644 29.0005 276.401 30.3437 275.479C31.687 274.557 34.6535 275.048 39.2187 274.917C43.784 274.785 50.8816 275.512 51.3437 273.479C51.8059 271.447 48.2998 268.9 45.625 268.62C42.9501 268.339 36.8395 271.929 36.2969 269.62C35.7542 267.311 38.6969 266.521 41.5312 265.37C44.3656 264.219 49.3731 264.662 55.4062 268.042C61.4393 271.422 68.9241 273.483 75.9375 272.354C82.9509 271.225 88.8166 266.395 91.9375 265.354C95.0583 264.314 96.7938 260.497 99.8125 256.917C102.831 253.337 106.896 242.553 107.937 238.354C108.979 234.155 113.104 208.704 110.312 195.854C107.521 183.005 99.5762 178.857 93.875 176.354C88.1737 173.852 80.7479 171.892 76.0312 173.167C71.3146 174.442 70.8234 177.054 69.9375 179.354C69.0516 181.654 70.179 181.614 70.875 185.542C71.571 189.469 71.1662 192.096 69.875 194.542C68.5838 196.987 67.0291 196.674 66 196.917C64.9709 197.16 62.6811 197.62 64.375 195.729C66.0689 193.838 68.8867 185.483 65.9375 184.354C62.9883 183.225 64.7155 184.671 63.8125 185.229C62.9095 185.787 63.3927 185.233 60.9375 188.354C58.4823 191.476 48.3418 197.659 44.9375 197.354C41.5332 197.05 42.4875 197.341 43.75 195.479C45.0125 193.618 48.0468 192.891 51.7461 190.581C55.4454 188.271 61.4399 177.199 63.9375 175.354C66.4351 173.51 49.7481 178.236 43.9375 183.354C38.1269 188.473 37.0695 191.235 32.6875 198.354C28.3055 205.474 18.102 214.49 10.9375 216.354C3.77299 218.219 4.67014 217.397 1.93748 216.354C-0.795174 215.312 -0.254995 216.241 1.21873 214.792C2.69246 213.343 2.27997 214.352 7.21873 212.792C12.1575 211.231 20.2085 204.721 23.9375 200.354C27.6665 195.988 28.2288 193.627 31.5 188.249C34.7712 182.871 37.4192 177.881 46.875 172.542C56.3308 167.202 67.3081 165.862 83.3093 165.868C99.3105 165.874 113.121 176.133 114.937 174.354C116.754 172.576 104.542 157.346 102.937 156.354C101.333 155.363 102.184 155.14 98.9375 152.354C95.6907 149.569 92.59 148.399 84.625 146.979C76.66 145.56 64.4461 137.363 59.2539 133.096C54.0617 128.83 50.5044 128.793 47.25 124.979C43.9955 121.166 39.0752 119.244 34.8398 117.593C30.6045 115.941 27.7904 114.397 26.9375 112.354C26.0846 110.311 25.434 107.522 30.0625 110.448C34.6909 113.374 38.3224 115.401 41.3125 115.323C42.2015 112.913 39.473 106.794 37.5312 103.354C35.5895 99.9145 33.3674 99.1452 33.9375 98.3543C34.5075 97.5634 34.1394 96.9392 36.9375 97.3543C39.7355 97.7694 42.1294 102.199 43.6875 106.229C45.2456 110.259 46.7236 116.359 47.9375 117.354C49.1513 118.349 51.6088 120.336 52.9375 121.354C54.2661 122.373 57.4 123.818 57.9375 123.354C58.4749 122.891 57.657 122.315 57.0625 119.667C56.4679 117.018 55.6876 111.836 55.125 107.667C54.5624 103.498 54.6127 101.141 51.625 97.6668C48.6373 94.1921 42.8906 93.1278 39.7305 92.7215C36.5703 92.3151 36.3867 91.844 35.2812 90.9793C34.1758 90.1146 37.6824 87.184 44.2812 89.6668C50.8801 92.1496 53.7528 93.168 56.6562 97.7605C59.5597 102.353 60.864 108.836 61.9687 114.948C63.0734 121.06 64.6211 127.037 69.1562 130.448C73.6913 133.86 78.6932 136.888 95.4922 140.366C112.291 143.844 115.728 153.923 121.625 157.511C121.974 153.153 120.138 141.85 114.937 136.354C109.737 130.859 96.4139 125.71 89.8203 122.507C83.2267 119.303 81.8432 116.424 79.9375 113.354C78.0318 110.284 78.8738 111.502 78.5 106.979C78.1262 102.457 76.6606 96.5242 75.9375 95.3543C75.2144 94.1843 70.473 89.7237 68.1875 86.8543C65.9019 83.9848 59.8992 82.4413 55.6875 78.9168C51.4758 75.3922 48.7678 69.0959 47.9375 68.3543C47.1071 67.6126 42.4438 65.28 39.25 67.3855C36.0561 69.491 29.5079 71.3734 28.25 69.3855C26.992 67.3977 39.7726 64.7923 36.3125 62.4793C32.8524 60.1662 28.7886 58.1171 26.8203 56.9011C24.852 55.6852 20.868 51.7999 21.9375 50.3543C23.007 48.9086 22.9377 49.0671 24.9375 49.3543C26.9372 49.6414 28.7368 52.0666 32.0859 54.4285C35.435 56.7904 44.226 62.5615 45.9375 61.3543C47.6489 60.1471 45.7602 60.6351 45.625 55.9793C45.4898 51.3234 47.8111 43.4334 50.9375 39.3543C54.0638 35.2751 53.0592 36.6165 55.9375 35.3543C58.8158 34.092 59.7393 34.4609 60.9375 36.3543C62.1357 38.2477 56.9935 38.7197 53.9375 43.3543C50.8815 47.9888 49.8029 55.7718 52.9375 63.3543C56.0721 70.9367 57.1579 69.1194 57.9375 71.3543C58.7171 73.5891 64.3463 76.642 64.9375 76.3543C65.5286 76.0666 64.766 76.1851 65.5625 73.2918C66.359 70.3985 70.4725 65.8831 73.3125 63.7918C76.1525 61.7005 78.2352 61.1198 81.3125 62.7918C84.3898 64.4637 83.3927 64.6768 81.8125 65.3543C80.2323 66.0317 78.4168 64.6808 75.6875 66.6043C72.9582 68.5277 70.6855 72.4593 70.8125 75.9168C70.9394 79.3742 71.4703 78.7069 72.9375 81.3543C74.4046 84.0016 76.1927 82.9896 79.9375 86.3543C83.6822 89.7189 85.3047 95.0349 86.5 100.542C87.6952 106.049 86.0506 105.215 89.4375 109.292C92.8244 113.369 102.185 116.09 108.062 117.854C113.94 119.619 121.295 124.976 121.937 124.354C122.58 123.732 118.489 118.241 116.566 114.589C114.643 110.937 112.976 99.4782 113.937 95.3543C114.898 91.2303 115.284 91.5389 116.312 87.2293C117.341 82.9196 114.309 76.148 111.062 71.3543C107.816 66.5605 107.74 68.3445 100.562 62.6668C93.3847 56.9891 90.5506 52.0029 88.5937 45.9636C86.6368 39.9244 86.8479 38.6495 87.6875 35.1668C88.5271 31.684 88.0053 29.8269 90.125 30.4793C92.2446 31.1317 91.5491 35.1852 92.8125 41.1043C94.0758 47.0233 96.9154 51.589 97.6875 52.4793C98.4596 53.3695 101.762 57.6745 107.937 60.3543C114.113 63.0341 112.561 38.617 107.27 25.6551C101.978 12.6931 103.031 17.906 102.023 15.948C101.016 13.9901 88.2137 11.371 90.0469 9.60427C91.88 7.83755 104.602 10.5228 106.141 12.1199Z" sodipodi:nodetypes="czczzzzzzzzzzzzzzzzzzzzzzzzzczzczzzczzczzzzzzzzzzzzzczzzzzzzzzzzzzzszzzzzzzzzzczzzzzzzzzzzzzzzzzczzzzzzzzzzzzzzzzzzzzzzzzzzzzzzzzzzzzzzzzzzzzzzzzzzzzzzzzzzzzzzzzzzzzzzzzzzzzzzzzzzzzzczzzzzzzzzzzzzzzzzzzzzzzzzzzzzzzzzzzzzzzzzzzzzzzzzzzzzzzzzzzzzzczzzzzzzzzzzzzzzzzzzzzzzzzzzzzzzzzzzzzzzzzzzzzzzzzczzzzzzzzzzzzzzzzzczzzzzzzzzzzzzzzzzzzzzzzzzzzzzzzzzzzzzzzzzzzzzzzzzzz"/><path id="shape1" transform="matrix(0.72 0 0 0.72 177.30000011265 84.0641184372327)" fill="#754d33" stroke-opacity="0" stroke="#000000" stroke-width="0" stroke-linecap="square" stroke-linejoin="bevel" d="M68.3906 0.0333425C71.6908 10.3603 75.5905 8.67533 76.9375 11.3693C78.5665 16.5498 77.5721 15.3627 76.6875 18.9943C73.6719 22.8968 65.68 27.9943 65 27.9943C65.9529 30.1217 66.9125 32.2462 67.875 34.3693C68.4087 35.5526 68.9423 36.736 69.4922 37.9552C70.8097 41.0168 70.8097 41.0168 73 42.9943C77.2192 44.7326 77.3695 45.2471 82.5 43.2443C84.495 42.6293 88.495 39.0043 89 37.9943C91.775 36.5743 92.3625 34.3105 93.6875 35.7755C94.6387 36.238 91.0275 39.138 90.6875 40.838C87.6276 43.8152 89.0134 43.8191 84.0625 47.4005C79.3068 49.1315 76.0307 50.2414 71.3125 48.4318C65.6396 44.6172 62.6266 40.1532 60 33.9943C59.01 33.3343 57.4575 31.0805 56.4375 30.4005C51.3435 31.4193 47.7885 32.1803 43.8438 35.4005C39.8738 40.7997 37.5488 49.1602 32.3438 53.5255C33.9938 54.1855 39.3 55.3143 41 55.9943C46.0588 59.5867 50.1651 63.0396 54.125 67.8068C57.5512 72.0234 57.5512 72.0234 61.25 73.5568C68.5995 74.4142 75.7023 74.2635 83 72.9943C87.943 72.7471 91.842 72.56 96.5 74.3068C99 75.9943 104.84 82.6693 102.016 83.0568C99.0315 82.3218 96.9806 79.1393 95.6094 78.9162C92.5793 78.254 89.7142 76.4505 84.4844 78.3537C82.8696 79.1307 78.3268 79.9584 77 79.9943C78.8745 85.8906 76.937 82.7031 81 87.5568C81.9281 88.2168 88.1875 92.9818 86.125 93.9943C83.625 95.8068 81 93.9943 78.6133 92.3849C77.854 91.6785 77.0948 90.9721 76.3125 90.2443C75.5455 89.5482 74.7785 88.8521 73.9883 88.1349C72 85.9943 72 85.9943 70 81.9943C67.0344 81.1415 67.1282 79.9697 63.7187 79.6974C59.4392 79.224 57.6707 78.8765 53.75 76.9162C52.76 75.5962 47.5006 71.0493 46.0469 69.1974C40.5823 64.2446 41.262 64.8793 36.168 62.4943C27.7025 58.6055 18.8219 60.3588 9.61719 59.6544C5 58.9943 5 58.9943 0 55.9943C0.33 54.6743 -0.215 55.073 1.28125 54.0568C3.22266 52.7716 5.44141 52.3966 8.84375 52.6193C14.5494 52.7818 16.8312 51.671 22 48.9943C26.3449 45.4097 29.5967 40.7695 33.0781 36.3654C36.3823 32.2889 39.8051 29.1405 44 25.9943C49.5526 24.6474 55.1353 23.5683 60.7422 22.4708C65.838 21.0398 68.5325 19.9519 72 15.9943C72.3828 11.4521 71.0156 12.3662 68.9766 8.97084C68.4347 8.41772 66.4894 5.33178 66.5234 4.49428C66.1972 2.00803 67.0306 -0.306658 68.3906 0.0333425Z" sodipodi:nodetypes="cccccccccccccccccccccccccccccccccccccccccccccccc"/><path id="shape2" transform="matrix(0.72 0 0 0.72 27.4170097987954 86.3999999928477)" fill="#754d33" stroke-opacity="0" stroke="#000000" stroke-width="0" stroke-linecap="square" stroke-linejoin="bevel" d="M30.6708 0C31.9908 0.33 30.8108 0.41 32.1708 0.75C31.1708 5.75 28.7074 10.9825 28.1708 12.75C30 15.8814 30 15.8814 34.1708 17.75C37.9162 18.6959 42.5968 21.0934 46.4013 21.7617C53.3452 23.0276 57.9062 23.0294 63.1708 27.75C64.8903 29.8537 66.5548 32.0033 68.1708 34.1875C73.9056 41.9997 67.9056 43.2184 75.6708 48.7812C80.832 50.1432 89.3417 50.405 94.6357 50.0586C101.39 49.2622 99.6658 50.73 100.171 52.75C94.7 56.0325 91.874 56.2621 85.6083 56.6875C73.5868 57.7487 64.6327 60.5383 54.1708 66.75C52.1908 67.74 44.4833 74.25 41.9833 75.375C39.3845 76.25 30.1408 76.995 28.4833 77.25C26.1758 79.9189 25.3633 80.0439 23.6708 83.375C20.2333 86.75 21.2333 84.8125 17.6708 87.4375C16.0208 87.4375 16.2958 87.575 16.2958 85.875C18.9068 83.8028 19.4499 81.6756 22.1708 79.75C22.6658 78.265 22.6658 78.265 23.1708 76.75C20.2133 76.6425 16.1921 74.0021 13.2333 73.9375C11.5859 73.8911 5.38848 74.9922 3.98332 75.125C3.32332 76.445 -0.89168 76.875 0.17082 73.75C6.75515 69.7994 9.41487 69.5653 17.1708 69.75C18.1196 69.915 19.0683 70.08 20.0458 70.25C27.5456 71.45 35.0595 71.5222 42.1708 68.75C45.0344 66.1636 45.0344 66.1636 47.5458 63C52.0692 57.8091 63.4908 50.75 64.1708 50.75C60.4309 42.8303 63.8378 37.8701 56.5458 32.625C56.3628 31.3578 47.8606 28.8046 46.1708 28.75C44.5208 29.08 42.8708 29.41 41.1708 29.75C38.1101 33.4699 38.1101 33.4699 36.7958 37.1875C34.9084 41.3254 31.0031 44.4633 26.1552 45.5781C24.3888 46.3704 17.9934 45.7884 11.5302 43.2031C8.65519 40.8281 8.29582 41.375 6.17082 38.75C4.49312 36.6401 0.45424 32.5275 2.55596 30.7009C4.65768 28.8743 7.93857 34.1202 9.95207 35.7812C10.9421 36.7712 12.2886 38.531 15.7021 39.6562C19.1156 40.7815 20.1819 41.079 24.9208 39.9375C29.6598 38.796 31.2628 34.5728 32.8583 30.5625C33.2953 29.4758 34.8348 25.6066 35.1708 24.75C34.2375 24.46 26.846 21.2023 24.1708 18.75C22.1708 15.75 23.6708 15.875 23.2958 12.0625C23.712 7.4148 29.9908 0.68 30.6708 0Z" sodipodi:nodetypes="cccccccccccccccccccccccccccccccccczczzccccc"/>
</svg>
